#N canvas 44 133 895 633 12;
#X msg 117 -13 dimen 450 450 \, create \, 1;
#X obj 127 18 gemwin;
#X obj 104 65 gemhead;
#X obj 104 120 pix_image;
#X obj 104 140 pix_texture;
#X obj 104 195 translateXYZ;
#X obj 104 220 rotateXYZ;
#X obj 190 87 bng 15 250 50 0 empty empty empty 0 -6 0 8 -262144 -1
-1;
#N canvas 0 22 450 300 openpanel 0;
#X obj 114 62 inlet;
#X obj 121 254 outlet;
#X obj 114 125 openpanel;
#X msg 114 162 set open \$1;
#X obj 114 199 t b a;
#X connect 0 0 2 0;
#X connect 2 0 3 0;
#X connect 3 0 4 0;
#X connect 4 0 1 0;
#X connect 4 1 1 0;
#X restore 190 104 pd openpanel;
#X msg 190 126 open /home/deifius/inasra/xwordspine.json.png;
#X obj 179 40 pack f f f;
#X obj 262 40 bang;
#X floatatom 176 10 5 0 0 0 - - -;
#X floatatom 216 11 5 0 0 0 - - -;
#X floatatom 258 9 5 0 0 0 - - -;
#X obj 104 92 alpha 0;
#X obj 105 167 colorRGB 0 1 0;
#X obj 104 245 rectangle 4 4;
#X obj 272 187 gemhead;
#X obj 272 242 pix_image;
#X obj 272 262 pix_texture;
#X obj 272 317 translateXYZ;
#X obj 272 342 rotateXYZ;
#X obj 272 214 alpha 0;
#X obj 272 367 rectangle 4 4;
#X obj 509 188 ggee/shell;
#X obj 486 410 print;
#X msg 509 159 bash randomNextMove.sh;
#X obj 273 289 colorRGB 0 1 0;
#X obj 560 8 loadbang;
#X msg 562 41 1;
#X msg 179 64 color 1 0.8 1;
#X obj 569 67 tgl 15 0 empty empty empty 17 7 0 10 -262144 -1 -1 1
1;
#X obj 564 88 metro 125;
#X connect 0 0 1 0;
#X connect 2 0 15 0;
#X connect 3 0 4 0;
#X connect 4 0 16 0;
#X connect 5 0 6 0;
#X connect 6 0 17 0;
#X connect 7 0 8 0;
#X connect 8 0 9 0;
#X connect 9 0 3 0;
#X connect 10 0 31 0;
#X connect 11 0 10 0;
#X connect 12 0 10 0;
#X connect 13 0 10 1;
#X connect 13 0 11 0;
#X connect 14 0 10 2;
#X connect 14 0 11 0;
#X connect 15 0 3 0;
#X connect 16 0 5 0;
#X connect 18 0 23 0;
#X connect 19 0 20 0;
#X connect 20 0 28 0;
#X connect 21 0 22 0;
#X connect 22 0 24 0;
#X connect 23 0 19 0;
#X connect 25 0 19 0;
#X connect 27 0 25 0;
#X connect 28 0 21 0;
#X connect 29 0 9 0;
#X connect 29 0 30 0;
#X connect 29 0 0 0;
#X connect 29 0 31 0;
#X connect 30 0 32 0;
#X connect 31 0 1 0;
#X connect 32 0 33 0;
#X connect 33 0 27 0;
