#N canvas 123 223 752 599 10;
#X obj 97 113 notein;
#X obj 414 80 table velocity;
#X obj 413 110 table duration;
#X obj 351 376 int;
#X obj 390 371 + 1;
#X obj 346 328 loadbang;
#X msg 347 351 1;
#X obj 313 335 bang;
#X obj 314 311 bng 15 250 50 0 empty empty empty 17 7 0 10 -262144
-1 -1;
#X obj 123 528 tabwrite velocity;
#X obj 241 528 tabwrite duration;
#X obj 80 332 spigot;
#X obj 118 261 t f f;
#X obj 139 300 sel 0;
#N canvas 1 84 450 300 time.elapsed 0;
#X obj 211 122 % 2;
#X obj 164 205 timer;
#X obj 122 203 timer;
#X obj 178 102 int;
#X obj 208 88 + 1;
#X obj 157 125 sel 0 1;
#X obj 137 262 outlet;
#X obj 118 45 inlet;
#X obj 134 80 bang;
#X connect 0 0 3 1;
#X connect 1 0 6 0;
#X connect 2 0 6 0;
#X connect 3 0 4 0;
#X connect 3 0 5 0;
#X connect 4 0 0 0;
#X connect 5 0 1 0;
#X connect 5 0 2 1;
#X connect 5 1 1 1;
#X connect 5 1 2 0;
#X connect 7 0 8 0;
#X connect 8 0 3 0;
#X restore 185 380 pd time.elapsed;
#X obj 158 345 t f b b;
#X obj 347 447 + -1;
#X obj 246 454 + 0;
#X obj 102 463 + 0;
#X obj 414 52 table pitch;
#X obj 515 80 table dynamic;
#X obj 513 110 table length;
#X obj 514 52 table solfege;
#X msg 420 395 \; pitch resize \$1 \; solfege resize \$1 \; velocity
resize \$1 \; dynamic resize \$1 \; duration resize \$1 \; length resize
\$1;
#X obj 19 528 tabwrite pitch;
#X text 414 35 1st order;
#X text 513 34 2nd order;
#X obj 231 215 beat;
#X obj 295 225 chord;
#X connect 0 0 11 0;
#X connect 0 1 12 0;
#X connect 3 0 4 0;
#X connect 3 0 23 0;
#X connect 3 0 16 0;
#X connect 3 0 17 0;
#X connect 3 0 18 0;
#X connect 4 0 3 1;
#X connect 5 0 6 0;
#X connect 6 0 3 0;
#X connect 7 0 3 0;
#X connect 8 0 7 0;
#X connect 11 0 24 0;
#X connect 12 0 11 1;
#X connect 12 1 13 0;
#X connect 13 1 15 0;
#X connect 14 0 10 0;
#X connect 15 0 9 0;
#X connect 15 1 14 0;
#X connect 15 2 7 0;
#X connect 16 0 10 1;
#X connect 17 0 9 1;
#X connect 18 0 24 1;
