#N canvas 642 136 355 611 10;
#X obj -454 -68 gemhead;
#X obj -362 260 translateXYZ;
#X obj -365 325 rotateXYZ;
#X msg -444 449 text \$1;
#N canvas 737 354 192 260 timemove 0;
#X obj 36 56 unpack f f f;
#X obj 12 103 line;
#X obj 72 103 line;
#X obj 132 103 line;
#X obj 38 12 inlet;
#X obj 14 204 outlet;
#X obj 64 204 outlet;
#X obj 114 204 outlet;
#X msg 74 79 \$1 151;
#X msg 132 80 \$1 151;
#X msg 12 80 \$1 151;
#X connect 0 0 10 0;
#X connect 0 1 8 0;
#X connect 0 2 9 0;
#X connect 1 0 5 0;
#X connect 2 0 6 0;
#X connect 3 0 7 0;
#X connect 4 0 0 0;
#X connect 8 0 2 0;
#X connect 9 0 3 0;
#X connect 10 0 1 0;
#X restore -306 202 pd timemove;
#N canvas 1 126 450 524 random/set 0;
#X obj 226 -69 random 360;
#X obj 224 35 route 0 1 2;
#X obj 151 -12 % 3;
#X obj 182 -11 int;
#X obj 172 11 + 1;
#X obj 186 -33 bang;
#X obj 251 2 pack;
#X obj 226 -43 trigger b f;
#X msg 244 93 add2 \$1;
#X msg 291 152 add2 \$1;
#X msg 214 60 set \$1;
#X msg 178 188 286 155 59;
#X obj 263 121 t b b f;
#X obj 227 -94 until 3;
#X msg 227 -116 3;
#X obj 151 244 outlet;
#X obj 114 -175 inlet;
#X obj 116 -111 sel 1 0;
#X msg 76 14 0 0 0;
#X msg 97 -63 1;
#X msg 53 -67 0;
#X obj 32 -96 del 1200;
#X obj 30 -28 metro 300;
#X connect 0 0 7 0;
#X connect 1 0 10 0;
#X connect 1 1 8 0;
#X connect 1 2 12 0;
#X connect 2 0 3 1;
#X connect 3 0 4 0;
#X connect 3 0 6 0;
#X connect 4 0 2 0;
#X connect 5 0 3 0;
#X connect 6 0 1 0;
#X connect 7 0 5 0;
#X connect 7 1 6 1;
#X connect 8 0 11 0;
#X connect 9 0 11 0;
#X connect 10 0 11 0;
#X connect 11 0 15 0;
#X connect 12 1 11 0;
#X connect 12 2 9 0;
#X connect 13 0 0 0;
#X connect 14 0 13 0;
#X connect 16 0 17 0;
#X connect 17 0 19 0;
#X connect 17 0 21 0;
#X connect 17 1 14 0;
#X connect 18 0 15 0;
#X connect 19 0 22 0;
#X connect 20 0 22 0;
#X connect 21 0 20 0;
#X connect 22 0 18 0;
#X restore -414 222 pd random/set;
#N canvas 234 181 307 448 random/set 0;
#X obj 99 14 route 0 1 2;
#X obj 26 -33 % 3;
#X obj 57 -32 int;
#X obj 47 -10 + 1;
#X obj 61 -54 bang;
#X obj 126 -19 pack;
#X obj 101 -64 trigger b f;
#X msg 105 71 set \$1;
#X msg 59 217 6.6 -6 -3.52;
#X obj 154 132 t b b f;
#X obj 100 -119 until 3;
#X msg 100 -141 3;
#X obj 31 244 outlet;
#X obj 41 -168 inlet;
#X obj 39 -112 sel 1 0;
#X msg 8 -74 0 0 0;
#X msg 190 202 add2 \$1;
#X obj 100 -97 random 60;
#X obj 191 169 expr $f1*.01-3.6;
#X msg 135 104 add2 -6;
#X obj 92 37 expr $f1*.3-9;
#X connect 0 0 20 0;
#X connect 0 1 19 0;
#X connect 0 2 9 0;
#X connect 1 0 2 1;
#X connect 2 0 3 0;
#X connect 2 0 5 0;
#X connect 3 0 1 0;
#X connect 4 0 2 0;
#X connect 5 0 0 0;
#X connect 6 0 4 0;
#X connect 6 1 5 1;
#X connect 7 0 8 0;
#X connect 8 0 12 0;
#X connect 9 1 8 0;
#X connect 9 2 18 0;
#X connect 10 0 17 0;
#X connect 11 0 10 0;
#X connect 13 0 14 0;
#X connect 14 0 15 0;
#X connect 14 1 11 0;
#X connect 15 0 12 0;
#X connect 16 0 8 0;
#X connect 17 0 6 0;
#X connect 18 0 16 0;
#X connect 19 0 8 0;
#X connect 20 0 7 0;
#X restore -425 151 pd random/set;
#X msg -470 126 0;
#X obj -311 -68 r mailman;
#X obj -315 -33 route;
#X obj -274 -25 \$1;
#X obj -360 353 loadbang;
#X msg -340 444 text f;
#X obj -272 -46 loadbang;
#X obj -308 -5 route all;
#X obj -432 303 symbol;
#N canvas 1 99 636 509 randletter 0;
#X obj 163 52 inlet;
#X obj 162 87 bang;
#X obj 95 319 outlet;
#X obj 161 119 random 26;
#X obj 52 165 sel 0 1 2 3 4 5 6 7 8 9 10 11 12 13;
#X obj 268 169 sel 14 15 16 17 18 19 20 21 22 23 24 25;
#X msg 37 218 q;
#X msg 67 219 w;
#X msg 98 219 e;
#X msg 128 223 r;
#X msg 158 219 t;
#X msg 186 221 y;
#X msg 214 219 u;
#X msg 267 215 i;
#X msg 297 216 o;
#X msg 328 216 p;
#X msg 358 220 a;
#X msg 388 216 s;
#X msg 416 218 d;
#X msg 444 216 f;
#X msg 42 239 g;
#X msg 72 242 h;
#X msg 101 246 h;
#X msg 137 246 j;
#X msg 167 248 k;
#X msg 195 248 l;
#X msg 223 248 z;
#X msg 272 236 x;
#X msg 302 239 c;
#X msg 331 243 v;
#X msg 367 243 b;
#X msg 397 245 n;
#X msg 425 245 m;
#X connect 0 0 1 0;
#X connect 1 0 3 0;
#X connect 3 0 4 0;
#X connect 4 0 6 0;
#X connect 4 1 20 0;
#X connect 4 2 7 0;
#X connect 4 3 21 0;
#X connect 4 4 8 0;
#X connect 4 5 22 0;
#X connect 4 6 9 0;
#X connect 4 7 23 0;
#X connect 4 8 10 0;
#X connect 4 9 24 0;
#X connect 4 10 11 0;
#X connect 4 11 25 0;
#X connect 4 12 12 0;
#X connect 4 13 26 0;
#X connect 4 14 5 0;
#X connect 5 0 13 0;
#X connect 5 1 27 0;
#X connect 5 2 14 0;
#X connect 5 3 28 0;
#X connect 5 4 15 0;
#X connect 5 5 29 0;
#X connect 5 6 16 0;
#X connect 5 7 30 0;
#X connect 5 8 17 0;
#X connect 5 9 31 0;
#X connect 5 10 18 0;
#X connect 5 11 32 0;
#X connect 5 12 19 0;
#X connect 6 0 2 0;
#X connect 7 0 2 0;
#X connect 8 0 2 0;
#X connect 9 0 2 0;
#X connect 10 0 2 0;
#X connect 11 0 2 0;
#X connect 12 0 2 0;
#X connect 13 0 2 0;
#X connect 14 0 2 0;
#X connect 15 0 2 0;
#X connect 16 0 2 0;
#X connect 17 0 2 0;
#X connect 18 0 2 0;
#X connect 19 0 2 0;
#X connect 20 0 2 0;
#X connect 21 0 2 0;
#X connect 22 0 2 0;
#X connect 23 0 2 0;
#X connect 24 0 2 0;
#X connect 25 0 2 0;
#X connect 26 0 2 0;
#X connect 27 0 2 0;
#X connect 28 0 2 0;
#X connect 29 0 2 0;
#X connect 30 0 2 0;
#X connect 31 0 2 0;
#X connect 32 0 2 0;
#X restore -491 178 pd randletter;
#X obj -488 205 symbol;
#N canvas 623 290 279 474 timespin 0;
#X obj 11 212 unpack f f f;
#X obj 13 344 line;
#X obj 73 344 line;
#X obj 133 344 line;
#X obj 54 -40 inlet;
#X obj 20 382 outlet;
#X obj 70 382 outlet;
#X obj 120 382 outlet;
#X obj 123 1 random 6;
#X obj 119 34 sel 0 1 2 3 4 5;
#X msg 102 64 720;
#X msg 111 94 -360;
#X msg 170 66 -720;
#X msg 171 97 0;
#X obj 115 251 route 0 1 2;
#X obj 72 164 % 3;
#X obj 103 165 int;
#X obj 93 187 + 1;
#X obj 107 143 bang;
#X obj 142 218 pack;
#X obj 147 133 trigger b f;
#X obj 16 272 +;
#X obj 55 289 +;
#X obj 106 288 +;
#X obj 80 1 bang;
#X msg 229 64 360;
#X msg 231 94 0;
#X msg 13 321 \$1 251;
#X msg 73 322 \$1 251;
#X msg 133 321 \$1 251;
#X connect 0 0 21 0;
#X connect 0 1 22 0;
#X connect 0 2 23 0;
#X connect 1 0 5 0;
#X connect 2 0 6 0;
#X connect 3 0 7 0;
#X connect 4 0 24 0;
#X connect 4 0 0 0;
#X connect 8 0 9 0;
#X connect 9 0 10 0;
#X connect 9 1 11 0;
#X connect 9 2 12 0;
#X connect 9 3 13 0;
#X connect 9 4 25 0;
#X connect 9 5 26 0;
#X connect 10 0 20 0;
#X connect 11 0 20 0;
#X connect 12 0 20 0;
#X connect 13 0 20 0;
#X connect 14 0 21 1;
#X connect 14 1 22 1;
#X connect 14 2 23 1;
#X connect 15 0 16 1;
#X connect 16 0 17 0;
#X connect 16 0 19 0;
#X connect 17 0 15 0;
#X connect 18 0 16 0;
#X connect 19 0 14 0;
#X connect 20 0 18 0;
#X connect 20 1 19 1;
#X connect 21 0 27 0;
#X connect 22 0 28 0;
#X connect 23 0 29 0;
#X connect 24 0 8 0;
#X connect 25 0 20 0;
#X connect 26 0 20 0;
#X connect 27 0 1 0;
#X connect 28 0 2 0;
#X connect 29 0 3 0;
#X restore -350 301 pd timespin;
#X msg -325 174 1;
#X obj -332 111 del 45;
#X msg -341 396 font vera.ttf;
#X obj -332 25 route clear move;
#X obj -175 142 r mouse.pos;
#X obj -175 164 unpack;
#X obj -194 193 - 11;
#X obj -156 195 expr -1*$f1+8;
#X obj -246 268 -;
#X obj -203 273 -;
#X obj -242 338 +;
#X obj -249 311 abs;
#X obj -219 311 abs;
#X obj -243 368 < 0.7;
#X obj -211 440 sel 1;
#X obj -236 400 change;
#X obj -383 494 text2d;
#X obj -472 96 loadbang;
#X obj -196 -24 r loadbang;
#X msg -304 481 72;
#X connect 0 0 1 0;
#X connect 1 0 2 0;
#X connect 2 0 35 0;
#X connect 3 0 35 0;
#X connect 4 0 1 1;
#X connect 4 0 27 1;
#X connect 4 1 1 2;
#X connect 4 1 28 1;
#X connect 4 2 1 3;
#X connect 5 0 18 0;
#X connect 6 0 4 0;
#X connect 7 0 6 0;
#X connect 7 0 5 0;
#X connect 7 0 16 0;
#X connect 8 0 9 0;
#X connect 9 0 22 0;
#X connect 9 1 14 0;
#X connect 10 0 9 1;
#X connect 11 0 12 0;
#X connect 11 0 21 0;
#X connect 11 0 38 0;
#X connect 12 0 35 0;
#X connect 13 0 10 0;
#X connect 14 0 22 0;
#X connect 15 0 3 0;
#X connect 16 0 17 0;
#X connect 17 0 3 0;
#X connect 18 0 2 1;
#X connect 18 1 2 2;
#X connect 18 2 2 3;
#X connect 19 0 5 0;
#X connect 20 0 19 0;
#X connect 21 0 35 0;
#X connect 22 0 7 0;
#X connect 22 1 4 0;
#X connect 22 1 19 0;
#X connect 22 2 15 0;
#X connect 23 0 24 0;
#X connect 24 0 25 0;
#X connect 24 1 26 0;
#X connect 25 0 27 0;
#X connect 26 0 28 0;
#X connect 27 0 30 0;
#X connect 28 0 31 0;
#X connect 29 0 32 0;
#X connect 30 0 29 0;
#X connect 31 0 29 1;
#X connect 32 0 34 0;
#X connect 33 0 19 0;
#X connect 34 0 33 0;
#X connect 36 0 7 0;
#X connect 37 0 10 0;
#X connect 38 0 35 1;
