#N canvas 124 78 895 290 10;
#X obj 617 19 random 360;
#X obj 635 91 route 0 1 2;
#X obj 533 21 % 3;
#X obj 564 22 int;
#X obj 554 44 + 1;
#X obj 568 0 bang;
#X obj 662 69 pack;
#X obj 617 45 trigger b f;
#X msg 655 149 add2 \$1;
#X msg 702 208 add2 \$1;
#X msg 625 116 set \$1;
#X msg 634 234 3 31 317;
#X obj 674 177 t b b f;
#X obj 618 -6 until 3;
#X msg 618 -28 3;
#N canvas 1 122 262 164 window 0;
#X obj 108 134 gemwin;
#X msg 89 69 create;
#X msg 31 60 destroy;
#X msg 4 94 dimen 1024 768;
#X msg 17 126 1;
#X obj 50 139 tgl 15 0 empty empty empty 17 7 0 10 -262144 -1 -1 1
1;
#X obj 30 6 loadbang;
#X obj 50 35 t b b b;
#X msg 143 71 dimen 600 400;
#X connect 1 0 0 0;
#X connect 2 0 0 0;
#X connect 3 0 0 0;
#X connect 4 0 5 0;
#X connect 5 0 0 0;
#X connect 6 0 7 0;
#X connect 7 0 4 0;
#X connect 7 1 1 0;
#X connect 7 2 8 0;
#X connect 8 0 0 0;
#X restore -52 174 pd window;
#X obj 304 243 s mailman;
#X msg 182 170 all clear;
#X msg 189 196 0;
#X obj 403 192 t b s;
#X obj 340 216 pack f symbol;
#X obj 135 17 gemkeyname;
#X obj 247 -11 gemkeyname;
#X obj 228 90 sel Return BackSpace;
#X obj 509 153 s mailman;
#X obj 149 44 loadbang;
#X obj 132 79 del 1000;
#X obj 147 133 metro 50;
#X msg 197 106 1;
#X msg 153 102 0;
#N canvas 557 363 450 300 it 0;
#X obj 126 51 inlet;
#X obj 119 242 outlet;
#X obj 166 148 list split 1;
#X msg 173 117;
#X floatatom 141 197 5 0 0 0 - - -;
#X obj 288 141 prepend set;
#X msg 223 83 add2 \$1;
#X obj 102 113 metro 300;
#X obj 44 98 loadbang;
#X msg 53 123 1;
#X connect 0 0 6 0;
#X connect 2 0 4 0;
#X connect 2 1 5 0;
#X connect 3 0 2 0;
#X connect 5 0 3 0;
#X connect 6 0 3 0;
#X connect 7 0 3 0;
#X connect 8 0 9 0;
#X connect 9 0 7 0;
#X restore 20 171 pd it goes here;
#N canvas 999 386 450 300 speedlimit 0;
#X obj 126 51 inlet;
#X obj 119 242 outlet;
#X obj 166 148 list split 1;
#X msg 173 117;
#X obj 288 141 prepend set;
#X msg 223 83 add2 \$1;
#X obj 102 113 metro 300;
#X obj 44 98 loadbang;
#X msg 53 123 1;
#X floatatom 135 81 5 0 0 0 - - -;
#X connect 0 0 5 0;
#X connect 2 0 1 0;
#X connect 2 1 4 0;
#X connect 3 0 2 0;
#X connect 4 0 3 0;
#X connect 5 0 3 0;
#X connect 6 0 3 0;
#X connect 7 0 8 0;
#X connect 8 0 6 0;
#X connect 9 0 6 1;
#X restore 406 164 pd speedlimit;
#X obj 344 112 sel Control_L Caps_Lock;
#X floatatom 493 53 5 0 0 0 - - -;
#X msg 494 73 \$1 clear;
#X obj 399 85 print mailman;
#X obj 306 160 int;
#X obj 266 170 + 1;
#X obj 260 147 % 36;
#X obj 258 11 pack f s;
#X obj 267 34 route 1;
#X obj 256 62 symbol;
#X obj 336 25 shell;
#X obj 339 50 print;
#X msg 338 0 python wikichomp.webify.py cure;
#X obj 499 208 pack;
#X obj 498 229 s mouse.pos;
#X obj 501 178 gemmouse 22 16;
#X msg 715 110 \$1 move \$2 \$3 \$4;
#N canvas 709 516 267 248 formcube 0;
#X obj 7 216 outlet;
#X obj 8 185 pack f f f f;
#X obj 112 35 + 1;
#X obj 80 71 t f f;
#X obj -2 78 metro 125;
#X obj 126 59 tgl 15 0 empty empty empty 17 7 0 10 -262144 -1 -1 0
1;
#X obj 71 37 int 0;
#X msg 53 11 0;
#X obj 168 18 inlet;
#X obj 157 48 t f b;
#X floatatom 104 136 5 0 0 0 - - -;
#X floatatom 142 107 5 0 0 0 - - -;
#X floatatom 141 122 5 0 0 0 - - -;
#X floatatom 139 138 5 0 0 0 - - -;
#X obj 41 120 % 14;
#X obj 74 122 % 29;
#X obj 1 119 % 19;
#X obj -3 152 * 1.6;
#X obj 42 148 * 1.6;
#X obj 79 158 * 1.6;
#X connect 1 0 0 0;
#X connect 2 0 6 1;
#X connect 3 0 1 0;
#X connect 3 1 14 0;
#X connect 3 1 15 0;
#X connect 3 1 16 0;
#X connect 4 0 6 0;
#X connect 5 0 4 0;
#X connect 6 0 2 0;
#X connect 6 0 3 0;
#X connect 6 0 10 0;
#X connect 7 0 6 0;
#X connect 8 0 9 0;
#X connect 9 0 5 0;
#X connect 9 1 7 0;
#X connect 14 0 12 0;
#X connect 14 0 18 0;
#X connect 15 0 13 0;
#X connect 15 0 19 0;
#X connect 16 0 11 0;
#X connect 16 0 17 0;
#X connect 17 0 1 1;
#X connect 18 0 1 2;
#X connect 19 0 1 3;
#X coords 0 -1 1 1 85 60 1 100 100;
#X restore 714 36 pd formcube;
#N canvas 26 442 550 285 camera 0;
#X obj 98 107 camera;
#X obj 98 5 gemhead;
#X obj 81 55 tgl 15 0 empty empty reverse 0 -6 0 8 -262144 -1 -1 0
1;
#X obj 68 12 tgl 15 0 empty empty forward 0 -6 0 8 -262144 -1 -1 0
1;
#X obj 53 28 tgl 15 0 empty empty left 0 -6 0 8 -262144 -1 -1 0 1;
#X obj 79 26 tgl 15 0 empty empty right 0 -6 0 8 -262144 -1 -1 0 1
;
#X msg 68 27 left \$1;
#X msg 94 26 right \$1;
#X obj 7 57 tgl 15 0 empty empty down 0 -6 0 8 -262144 -1 -1 0 1;
#X obj 33 35 tgl 15 0 empty empty up 0 -6 0 8 -262144 -1 -1 0 1;
#X msg 33 51 up \$1;
#X msg 7 73 down \$1;
#X msg 114 181 reset;
#X msg 104 30 forward \$1;
#X msg 81 58 reverse \$1;
#X msg 4 150 speed \$1;
#X floatatom 4 132 5 0 0 0 - - -;
#X floatatom 5 93 5 0 0 1 distance - -;
#X msg 144 48 lookX \$1;
#X msg 144 75 lookY \$1;
#X msg 144 101 lookZ \$1;
#X floatatom 113 48 5 0 0 0 lookx - -;
#X floatatom 113 101 5 0 0 0 lookz - -;
#X floatatom 113 74 5 0 0 0 looky - -;
#X msg 5 111 distance \$1;
#X msg 86 149 1;
#X obj 86 127 loadbang;
#X obj 281 114 metro 2000;
#X obj 294 183 loadbang;
#X msg 191 174 0;
#X msg 277 226 1;
#X obj 341 0 r direction;
#X obj 335 53 sel L R U D;
#X obj 360 103 int 0;
#X floatatom 374 134 5 0 0 0 - - -;
#X obj 416 98 + 1;
#X obj 334 26 symbol;
#X obj 142 135 bng 15 250 50 0 empty empty empty 17 7 0 10 -262144
-1 -1;
#X connect 1 0 0 0;
#X connect 2 0 14 0;
#X connect 3 0 13 0;
#X connect 4 0 6 0;
#X connect 5 0 7 0;
#X connect 6 0 0 0;
#X connect 7 0 0 0;
#X connect 8 0 11 0;
#X connect 9 0 10 0;
#X connect 10 0 0 0;
#X connect 11 0 0 0;
#X connect 12 0 0 0;
#X connect 13 0 0 0;
#X connect 14 0 0 0;
#X connect 15 0 0 0;
#X connect 16 0 15 0;
#X connect 17 0 24 0;
#X connect 18 0 0 0;
#X connect 19 0 0 0;
#X connect 20 0 0 0;
#X connect 21 0 18 0;
#X connect 22 0 20 0;
#X connect 23 0 19 0;
#X connect 24 0 0 0;
#X connect 25 0 16 0;
#X connect 26 0 25 0;
#X connect 30 0 5 0;
#X connect 30 0 9 0;
#X connect 31 0 36 0;
#X connect 32 0 4 0;
#X connect 32 0 33 0;
#X connect 32 1 5 0;
#X connect 32 1 33 0;
#X connect 32 2 9 0;
#X connect 32 2 33 0;
#X connect 32 3 8 0;
#X connect 32 3 33 0;
#X connect 33 0 35 0;
#X connect 33 0 34 0;
#X connect 35 0 33 1;
#X connect 36 0 32 0;
#X connect 37 0 12 0;
#X coords 0 -1 1 1 170 150 1 0 0;
#X restore -45 -4 pd camera;
#X obj 701 36 tgl 15 0 empty empty empty 17 7 0 10 -262144 -1 -1 0
1;
#X msg 707 10 1;
#N canvas 669 602 266 162 selLRUD 0;
#X obj 44 10 inlet;
#X obj 144 128 outlet;
#X obj 54 46 sel Left Right Up Down;
#X msg 28 83 L;
#X msg 61 85 R;
#X msg 96 87 U;
#X msg 119 84 D;
#X obj 46 130 s direction;
#X connect 0 0 2 0;
#X connect 2 0 3 0;
#X connect 2 1 4 0;
#X connect 2 2 5 0;
#X connect 2 3 6 0;
#X connect 2 4 1 0;
#X connect 3 0 7 0;
#X connect 4 0 7 0;
#X connect 5 0 7 0;
#X connect 6 0 7 0;
#X restore 428 139 pd selLRUD;
#N canvas 685 445 235 176 lettercontrol 1;
#X floatatom 195 46 5 0 0 0 - - -;
#X obj 40 106 list append;
#X obj 53 22 inlet;
#X obj 135 145 outlet;
#X obj 87 86 t b l;
#N canvas 611 528 216 236 mailmandecoder 1;
#X obj -149 1 inlet;
#X obj -157 34 list split 1;
#X obj -137 56 list split 1;
#X obj -198 95 list prepend;
#X obj -103 81 list prepend;
#X obj -133 170 list;
#X obj -154 197 s mailman;
#X obj -47 24 loadbang;
#X msg -56 57 0 0 0 0 0;
#X msg -112 134 \$1 move \$2 \$4 \$3;
#X connect 0 0 1 0;
#X connect 1 0 3 1;
#X connect 1 0 4 1;
#X connect 1 1 2 0;
#X connect 2 0 3 0;
#X connect 2 1 4 0;
#X connect 3 0 5 0;
#X connect 4 0 9 0;
#X connect 5 0 6 0;
#X connect 7 0 8 0;
#X connect 8 0 1 0;
#X connect 9 0 5 0;
#X restore 15 154 pd mailmandecoder;
#X obj 8 25 inlet;
#X text 94 52 receive a list:;
#X text 104 63 letter \, xyz position;
#X obj 64 56 list;
#X obj 102 26 netreceive 38989;
#X text 139 116 bang letter;
#X text 142 128 instantiator;
#X msg 143 89 c 1 0 0;
#X connect 1 0 5 0;
#X connect 2 0 1 0;
#X connect 4 0 3 0;
#X connect 4 1 1 1;
#X connect 9 0 4 0;
#X connect 10 0 9 0;
#X connect 10 1 0 0;
#X connect 13 0 4 0;
#X restore -53 200 pd lettercontrol;
#N canvas 702 346 235 269 lettermaker 0;
#N canvas 702 108 94 605 letterarray 1;
#X obj 10 20 letter 0;
#X obj 10 40 letter 1;
#X obj 10 60 letter 2;
#X obj 10 80 letter 3;
#X obj 10 100 letter 4;
#X obj 10 120 letter 5;
#X obj 10 140 letter 6;
#X obj 10 160 letter 7;
#X obj 10 180 letter 8;
#X obj 10 200 letter 9;
#X obj 10 220 letter 10;
#X obj 10 240 letter 11;
#X obj 10 260 letter 12;
#X obj 10 280 letter 13;
#X obj 10 300 letter 14;
#X obj 10 320 letter 15;
#X obj 10 340 letter 16;
#X obj 10 360 letter 17;
#X obj 10 380 letter 18;
#X obj 10 400 letter 19;
#X obj 10 420 letter 20;
#X obj 10 440 letter 21;
#X obj 10 460 letter 22;
#X obj 10 480 letter 23;
#X obj 10 500 letter 24;
#X obj 10 520 letter 25;
#X obj 10 540 letter 26;
#X obj 10 560 letter 27;
#X obj 10 580 letter 28;
#X obj 10 600 letter 29;
#X obj 10 620 letter 30;
#X obj 10 640 letter 31;
#X obj 10 660 letter 32;
#X obj 10 680 letter 33;
#X obj 10 700 letter 34;
#X obj 10 720 letter 35;
#X obj 10 740 letter 36;
#X obj 10 760 letter 37;
#X obj 10 780 letter 38;
#X obj 10 800 letter 39;
#X obj 10 820 letter 40;
#X obj 10 840 letter 41;
#X obj 10 860 letter 42;
#X obj 10 880 letter 43;
#X obj 10 900 letter 44;
#X obj 10 920 letter 45;
#X obj 10 940 letter 46;
#X obj 10 960 letter 47;
#X obj 10 980 letter 48;
#X obj 10 1000 letter 49;
#X obj 10 1020 letter 50;
#X obj 10 1040 letter 51;
#X obj 10 1060 letter 52;
#X obj 10 1080 letter 53;
#X obj 10 1100 letter 54;
#X obj 10 1120 letter 55;
#X obj 10 1140 letter 56;
#X obj 10 1160 letter 57;
#X obj 10 1180 letter 58;
#X obj 10 1200 letter 59;
#X obj 10 1220 letter 60;
#X obj 10 1240 letter 61;
#X obj 10 1260 letter 62;
#X obj 10 1280 letter 63;
#X obj 10 1300 letter 64;
#X obj 10 1320 letter 65;
#X obj 10 1340 letter 66;
#X obj 10 1360 letter 67;
#X obj 10 1380 letter 68;
#X obj 10 1400 letter 69;
#X obj 10 1420 letter 70;
#X obj 10 1440 letter 71;
#X obj 10 1460 letter 72;
#X obj 10 1480 letter 73;
#X obj 10 1500 letter 74;
#X obj 10 1520 letter 75;
#X obj 10 1540 letter 76;
#X obj 10 1560 letter 77;
#X obj 10 1580 letter 78;
#X obj 10 1600 letter 79;
#X obj 10 1620 letter 80;
#X obj 10 1640 letter 81;
#X obj 10 1660 letter 82;
#X obj 10 1680 letter 83;
#X obj 10 1700 letter 84;
#X obj 10 1720 letter 85;
#X obj 10 1740 letter 86;
#X restore 32 43 pd letterarray;
#X obj -32 101 pack f f;
#X obj -18 49 t f f;
#X obj 20 15 + 1;
#X obj -40 25 bng 15 250 50 0 empty empty empty 17 7 0 10 -262144 -1
-1;
#X obj -31 1 inlet;
#X obj -34 238 outlet;
#X obj -32 75 expr ($f1*20)+20;
#X obj -22 25 int 0;
#X msg -41 165 \; pd-letterarray obj 10 \$1 letter \$2;
#X obj -30 125 t b l;
#X obj 17 144 f;
#X text 44 113 bang me to instantiate;
#X text 46 123 a new letter object;
#X text 46 135 once created \, output;
#X text 51 146 is id# of letter;
#X msg 35 239 \; pd-letterarray clear;
#X obj -23 264 loadbang;
#X msg 62 23 0;
#X msg 45 203 \; mailman \$1 clear;
#X obj 107 98 s loadbang;
#X obj 92 68 t f b;
#X connect 1 0 10 0;
#X connect 2 0 7 0;
#X connect 2 1 1 1;
#X connect 2 1 11 1;
#X connect 3 0 8 1;
#X connect 4 0 8 0;
#X connect 5 0 4 0;
#X connect 7 0 1 0;
#X connect 8 0 3 0;
#X connect 8 0 2 0;
#X connect 10 0 11 0;
#X connect 10 1 9 0;
#X connect 11 0 21 0;
#X connect 11 0 6 0;
#X connect 17 0 16 0;
#X connect 18 0 8 1;
#X connect 21 1 20 0;
#X restore 66 203 pd lettermaker;
#N canvas 616 569 176 195 lettertest 1;
#X obj 45 132 netsend;
#X floatatom 61 164 5 0 0 0 - - -;
#N canvas 827 524 127 183 readpants 1;
#X obj 16 -4 inlet;
#X obj 7 118 textfile;
#X obj 48 146 outlet;
#X msg 24 86 rewind;
#X obj 61 20 t b b b;
#X msg 4 46 read thepants.txt;
#X msg 72 92 1;
#X obj 99 95 tgl 15 0 empty empty empty 17 7 0 10 -262144 -1 -1 0 1
;
#X obj 67 117 metro 120;
#X msg 83 70 0;
#X obj 18 141 bng 15 250 50 0 empty empty empty 17 7 0 10 -262144 -1
-1;
#X connect 0 0 4 0;
#X connect 1 0 2 0;
#X connect 1 1 9 0;
#X connect 3 0 1 0;
#X connect 4 0 6 0;
#X connect 4 1 3 0;
#X connect 4 2 5 0;
#X connect 5 0 1 0;
#X connect 6 0 7 0;
#X connect 7 0 8 0;
#X connect 8 0 1 0;
#X connect 9 0 7 0;
#X connect 10 0 1 0;
#X restore 35 31 pd readpants;
#X obj 31 9 bng 15 250 50 0 empty empty empty 17 7 0 10 -262144 -1
-1;
#X msg 8 92 connect localhost 38989;
#X obj 28 51 prepend send;
#X obj 44 69 loadbang;
#X msg 97 130 disconnect;
#X connect 0 0 1 0;
#X connect 2 0 5 0;
#X connect 3 0 2 0;
#X connect 4 0 0 0;
#X connect 5 0 0 0;
#X connect 6 0 4 0;
#X connect 7 0 0 0;
#X restore 142 -2 pd lettertest;
#X obj 403 52 r mailman;
#X obj 709 140 s mailman;
#X msg 495 124;
#X msg 516 100 0 move 1 2 3;
#X connect 0 0 7 0;
#X connect 1 0 10 0;
#X connect 1 1 8 0;
#X connect 1 2 12 0;
#X connect 2 0 3 1;
#X connect 3 0 4 0;
#X connect 3 0 6 0;
#X connect 4 0 2 0;
#X connect 5 0 3 0;
#X connect 6 0 1 0;
#X connect 7 0 5 0;
#X connect 7 1 6 1;
#X connect 8 0 11 0;
#X connect 9 0 11 0;
#X connect 10 0 11 0;
#X connect 12 1 11 0;
#X connect 12 2 9 0;
#X connect 13 0 0 0;
#X connect 14 0 13 0;
#X connect 17 0 16 0;
#X connect 17 0 18 0;
#X connect 18 0 36 1;
#X connect 19 0 36 0;
#X connect 19 1 20 1;
#X connect 20 0 16 0;
#X connect 22 0 39 0;
#X connect 22 1 39 1;
#X connect 23 1 17 0;
#X connect 23 2 32 0;
#X connect 25 0 26 0;
#X connect 25 0 28 0;
#X connect 26 0 29 0;
#X connect 27 0 17 0;
#X connect 28 0 27 0;
#X connect 29 0 27 0;
#X connect 31 0 19 0;
#X connect 32 2 53 0;
#X connect 33 0 34 0;
#X connect 34 0 24 0;
#X connect 36 0 38 0;
#X connect 37 0 36 1;
#X connect 37 0 20 0;
#X connect 38 0 37 0;
#X connect 39 0 40 0;
#X connect 40 0 41 0;
#X connect 41 0 23 0;
#X connect 42 0 43 0;
#X connect 44 0 42 0;
#X connect 45 0 46 0;
#X connect 47 0 45 0;
#X connect 47 1 45 1;
#X connect 48 0 58 0;
#X connect 49 0 48 0;
#X connect 51 0 49 0;
#X connect 52 0 51 0;
#X connect 53 0 31 0;
#X connect 54 0 55 0;
#X connect 55 0 54 1;
#X connect 57 0 35 0;
#X connect 59 0 24 0;
#X connect 60 0 24 0;
