#N canvas 749 376 551 487 10;
#X obj 99 32 inlet;
#X obj 110 342 outlet;
#X text 107 364 euler X \, Y \, Z;
#X text 84 10 quaternion W<X \, Y \, Z>;
#X obj 99 69 unpack f f f f;
#N canvas 0 0 468 453 roll 0;
#X obj 43 25 inlet;
#X obj 83 25 inlet;
#X obj 123 25 inlet;
#X obj 117 374 outlet;
#X obj 117 285 atan2;
#X obj 49 159 expr 2*$f1*$f2;
#X obj 78 225 +;
#X obj 217 142 *;
#X obj 247 142 *;
#X obj 277 142 *;
#X obj 307 142 *;
#X obj 49 76 t f f f;
#X obj 71 125 expr 2*$f1*$f2;
#X obj 163 25 inlet;
#X obj 247 176 * -1;
#X obj 277 176 * -1;
#X obj 217 214 +;
#X obj 247 244 +;
#X obj 287 274 +;
#X connect 0 0 11 0;
#X connect 1 0 5 1;
#X connect 1 0 8 1;
#X connect 1 0 8 0;
#X connect 2 0 12 0;
#X connect 2 0 9 1;
#X connect 2 0 9 0;
#X connect 4 0 3 0;
#X connect 5 0 6 0;
#X connect 6 0 4 0;
#X connect 7 0 16 0;
#X connect 8 0 14 0;
#X connect 9 0 15 0;
#X connect 10 0 18 1;
#X connect 11 0 5 0;
#X connect 11 1 7 0;
#X connect 11 2 7 1;
#X connect 12 0 6 1;
#X connect 13 0 12 1;
#X connect 13 0 10 1;
#X connect 13 0 10 0;
#X connect 14 0 16 1;
#X connect 15 0 17 1;
#X connect 16 0 17 0;
#X connect 17 0 18 0;
#X connect 18 0 4 1;
#X restore 59 201 pd roll;
#X obj 110 319 pack f f f;
#N canvas 0 0 417 476 pitch 0;
#X obj 43 25 inlet;
#X obj 83 25 inlet;
#X obj 123 25 inlet;
#X obj 163 25 inlet;
#X obj 95 288 outlet;
#N canvas 0 0 450 300 arcsin 0;
#X obj 121 60 inlet;
#X obj 121 219 outlet;
#X obj 136 117 expr 1-$f1;
#X obj 136 94 *;
#X obj 136 139 sqrt;
#X obj 121 172 /;
#X obj 121 195 atan;
#X connect 0 0 3 1;
#X connect 0 0 3 0;
#X connect 0 0 5 0;
#X connect 2 0 4 0;
#X connect 3 0 2 0;
#X connect 4 0 5 1;
#X connect 5 0 6 0;
#X connect 6 0 1 0;
#X restore 95 223 pd arcsin;
#X obj 95 84 expr 2*$f1*$f2;
#X obj 48 123 expr 2*$f1*$f2;
#X obj 79 196 +;
#X obj 59 151 * -1;
#X obj 96 264 * -1;
#X connect 0 0 7 0;
#X connect 1 0 6 0;
#X connect 2 0 7 1;
#X connect 3 0 6 1;
#X connect 5 0 10 0;
#X connect 6 0 8 1;
#X connect 7 0 9 0;
#X connect 8 0 5 0;
#X connect 9 0 8 0;
#X connect 10 0 4 0;
#X restore 144 241 pd pitch;
#N canvas 0 0 468 453 yaw 0;
#X obj 43 25 inlet;
#X obj 83 25 inlet;
#X obj 123 25 inlet;
#X obj 163 25 inlet;
#X obj 117 374 outlet;
#X obj 117 325 atan2;
#X obj 28 159 expr 2*$f1*$f2;
#X obj 28 214 +;
#X obj 247 138 *;
#X obj 277 138 *;
#X obj 307 138 *;
#X obj 337 138 *;
#X obj 28 65 t f f f;
#X obj 337 186 * -1;
#X obj 322 239 +;
#X obj 292 208 +;
#X obj 262 189 +;
#X obj 307 172 * -1;
#X obj 123 175 expr 2*$f1*$f2;
#X connect 0 0 12 0;
#X connect 1 0 9 1;
#X connect 1 0 9 0;
#X connect 1 0 18 0;
#X connect 2 0 10 1;
#X connect 2 0 10 0;
#X connect 2 0 18 1;
#X connect 3 0 11 1;
#X connect 3 0 11 0;
#X connect 3 0 6 1;
#X connect 5 0 4 0;
#X connect 6 0 7 0;
#X connect 7 0 5 0;
#X connect 8 0 16 0;
#X connect 9 0 16 1;
#X connect 10 0 17 0;
#X connect 11 0 13 0;
#X connect 12 0 6 0;
#X connect 12 1 8 0;
#X connect 12 2 8 1;
#X connect 13 0 14 1;
#X connect 14 0 5 1;
#X connect 15 0 14 0;
#X connect 16 0 15 0;
#X connect 17 0 15 1;
#X connect 18 0 7 1;
#X restore 255 246 pd yaw;
#X obj 12 72 t f f f;
#X connect 0 0 4 0;
#X connect 4 0 9 0;
#X connect 4 1 7 1;
#X connect 4 1 8 1;
#X connect 4 1 5 1;
#X connect 4 2 7 2;
#X connect 4 2 8 2;
#X connect 4 2 5 2;
#X connect 4 3 7 3;
#X connect 4 3 8 3;
#X connect 4 3 5 3;
#X connect 5 0 6 0;
#X connect 6 0 1 0;
#X connect 7 0 6 1;
#X connect 8 0 6 2;
#X connect 9 0 5 0;
#X connect 9 1 7 0;
#X connect 9 2 8 0;
