#N canvas 4 50 800 408 10;
#X obj 44 107 gemwin;
#X msg 46 46 create;
#X obj 18 89 tgl 15 0 empty empty empty 17 7 0 10 -262144 -1 -1 1 1
;
#X obj 158 115 gemhead;
#X obj 157 163 alpha 1;
#X obj 156 210 circle;
#X obj 156 188 translateXYZ;
#X obj 295 35;
#X floatatom 225 107 5 0 0 0 - - -;
#N canvas 5 50 450 300 sllide 0;
#X obj 194 67 inlet;
#X obj 264 67 inlet;
#X obj 257 206 outlet;
#X obj 327 206 outlet;
#X obj 105 102 hsl 92 15 0 127 0 0 empty empty empty -2 -8 0 10 -262144
-1 -1 5600 1;
#X obj 334 67 inlet;
#X obj 404 67 inlet;
#X coords 0 -1 1 1 102 20 1 100 100;
#X restore 318 202 pd sllide;
#X obj 318 77 gemhead;
#X obj 317 125 alpha 1;
#X obj 316 172 circle;
#X obj 316 150 translateXYZ;
#X floatatom 233 188 5 0 0 0 - - -;
#X floatatom 508 240 5 0 0 0 - - -;
#X obj 551 200 gemhead;
#X obj 550 248 alpha 1;
#X obj 549 295 circle;
#X obj 549 273 translateXYZ;
#X obj 550 224 colorRGB 0 0 1;
#X obj 157 139 colorRGB 1 0 0;
#X obj 317 101 colorRGB 0 1 0;
#X connect 1 0 0 0;
#X connect 2 0 0 0;
#X connect 3 0 21 0;
#X connect 4 0 6 0;
#X connect 6 0 5 0;
#X connect 8 0 13 1;
#X connect 10 0 22 0;
#X connect 11 0 13 0;
#X connect 13 0 12 0;
#X connect 14 0 6 3;
#X connect 15 0 19 1;
#X connect 16 0 20 0;
#X connect 17 0 19 0;
#X connect 19 0 18 0;
#X connect 20 0 17 0;
#X connect 21 0 4 0;
#X connect 22 0 11 0;
