#N canvas 812 432 571 389 10;
#X obj 414 64 vsl 15 128 0 1 0 0 empty empty empty 0 -9 0 10 -262144
-1 -1 704 1;
#X obj 437 197 snapshot~;
#X obj 459 121 tgl 15 0 empty empty empty 17 7 0 10 -262144 -1 -1 1
1;
#N canvas 648 25 450 300 ping 0;
#X obj 240 281 circle;
#X obj 117 163 alpha 1;
#X obj 116 116 gemhead;
#X obj 132 142 color;
#X obj 190 153 expr 5*($f1+.05);
#X msg 172 121 0.2 0.4 0.4 \$1;
#X obj 243 46 inlet;
#X obj 183 46 - 1;
#X obj 183 65 abs;
#X obj 188 90 *;
#X obj 137 219 pix_texture;
#X obj 137 199 pix_image;
#X msg 316 186 open ripple.jpg;
#X obj 317 166 loadbang;
#X obj 282 258 rotateXYZ;
#X obj 287 219 * -360;
#X connect 1 0 11 0;
#X connect 2 0 3 0;
#X connect 3 0 1 0;
#X connect 4 0 0 1;
#X connect 5 0 3 1;
#X connect 6 0 4 0;
#X connect 6 0 7 0;
#X connect 6 0 15 0;
#X connect 7 0 8 0;
#X connect 8 0 9 1;
#X connect 8 0 9 0;
#X connect 9 0 5 0;
#X connect 10 0 14 0;
#X connect 11 0 10 0;
#X connect 12 0 11 0;
#X connect 13 0 12 0;
#X connect 14 0 0 0;
#X connect 15 0 14 3;
#X restore 197 263 pd ping;
#X floatatom 526 128 5 0 0 0 - - -;
#N canvas 0 0 450 300 ping 0;
#X obj 133 267 circle;
#X obj 117 173 alpha 1;
#X obj 116 126 gemhead;
#X obj 132 152 color;
#X obj 190 163 expr 5*($f1+.05);
#X obj 243 46 inlet;
#X msg 172 131 0.4 0.2 0.4 \$1;
#X obj 165 53 - 1;
#X obj 165 72 abs;
#X obj 170 97 *;
#X obj 137 219 pix_texture;
#X obj 137 199 pix_image;
#X msg 316 186 open ripple.jpg;
#X obj 317 166 loadbang;
#X obj 287 219 * 360;
#X obj 282 258 rotateXYZ;
#X connect 1 0 11 0;
#X connect 2 0 3 0;
#X connect 3 0 1 0;
#X connect 4 0 0 1;
#X connect 5 0 4 0;
#X connect 5 0 7 0;
#X connect 5 0 14 0;
#X connect 6 0 3 1;
#X connect 7 0 8 0;
#X connect 8 0 9 1;
#X connect 8 0 9 0;
#X connect 9 0 6 0;
#X connect 10 0 15 0;
#X connect 11 0 10 0;
#X connect 12 0 11 0;
#X connect 13 0 12 0;
#X connect 14 0 15 3;
#X connect 15 0 0 0;
#X restore 271 343 pd ping;
#N canvas 549 357 450 300 ping 0;
#X obj 192 277 circle;
#X obj 117 173 alpha 1;
#X obj 116 126 gemhead;
#X obj 132 152 color;
#X obj 190 163 expr 5*($f1+.05);
#X obj 243 46 inlet;
#X obj 177 57 - 1;
#X obj 177 76 abs;
#X obj 182 101 *;
#X obj 139 246 pix_texture;
#X obj 139 226 pix_image;
#X msg 325 201 open ripple.jpg;
#X obj 326 181 loadbang;
#X msg 172 131 0.4 0.4 0.2 \$1;
#X obj 245 197 * 360;
#X obj 250 242 rotateXYZ;
#X connect 1 0 10 0;
#X connect 2 0 3 0;
#X connect 3 0 1 0;
#X connect 4 0 0 1;
#X connect 5 0 4 0;
#X connect 5 0 6 0;
#X connect 5 0 14 0;
#X connect 6 0 7 0;
#X connect 7 0 8 1;
#X connect 7 0 8 0;
#X connect 8 0 13 0;
#X connect 9 0 15 0;
#X connect 10 0 9 0;
#X connect 11 0 10 0;
#X connect 12 0 11 0;
#X connect 13 0 3 1;
#X connect 14 0 15 3;
#X connect 15 0 0 0;
#X restore 222 305 pd ping;
#X obj 459 169 metro 43;
#X obj 442 253 pipe 500;
#X obj 432 225 pipe 500;
#X obj 57 106 gemhead;
#X obj 134 99 light;
#X obj 135 57 gemhead;
#X obj 134 77 translateXYZ 2 2 2;
#N canvas 771 551 481 342 mastergemwin 0;
#X obj 233 295 gemwin;
#X obj 103 124 tgl 15 0 empty empty empty 0 -6 0 10 -262144 -1 -1 1
1;
#X msg 187 265 create;
#X obj 247 234 bang;
#X msg 276 272 color \$1 \$2 \$3;
#X obj 107 214 bang;
#X floatatom 165 190 5 0 0 0 - - -;
#X floatatom 126 183 5 0 0 0 - - -;
#X obj 142 218 pack f f;
#X msg 200 211 border \$1;
#X obj 205 190 tgl 15 0 empty empty empty 0 -6 0 10 -262144 -1 -1 0
1;
#X obj 260 156 tgl 15 0 empty empty empty 0 -6 0 10 -262144 -1 -1 0
1;
#X msg 247 176 fullscreen \$1;
#X obj 146 285 bng 15 250 50 0 empty empty empty 0 -6 0 10 -262144
-1 -1;
#X msg 167 164 lighting \$1;
#X obj 167 125 tgl 15 0 empty empty empty 0 -6 0 8 -262144 -1 -1 1
1;
#X obj 355 144 loadbang;
#X obj 366 167 t b b;
#X msg 373 220 1;
#X text 102 110 render;
#X text 147 112 light;
#X obj 233 72 inlet;
#X obj 196 323 outlet;
#X msg 134 243 dimen 640 480;
#X obj 292 90 inlet bkgrndclr;
#X connect 0 0 22 0;
#X connect 1 0 0 0;
#X connect 2 0 0 0;
#X connect 4 0 0 0;
#X connect 5 0 8 0;
#X connect 6 0 5 0;
#X connect 6 0 8 1;
#X connect 7 0 8 0;
#X connect 8 0 23 0;
#X connect 9 0 0 0;
#X connect 10 0 9 0;
#X connect 11 0 12 0;
#X connect 12 0 0 0;
#X connect 13 0 0 0;
#X connect 14 0 0 0;
#X connect 15 0 14 0;
#X connect 16 0 17 0;
#X connect 17 0 2 0;
#X connect 17 0 18 0;
#X connect 17 1 23 0;
#X connect 18 0 1 0;
#X connect 18 0 15 0;
#X connect 21 0 0 0;
#X connect 23 0 0 0;
#X connect 24 0 4 0;
#X coords 0 -1 1 1 85 45 1 100 100;
#X restore 9 47 pd mastergemwin;
#X obj 57 127 sphere 0.3 34;
#X msg 222 36 \; pd dsp 1 \;;
#X obj 222 14 loadbang;
#X obj 456 80 loadbang;
#X msg 459 100 1;
#X obj 438 147 phasor~ 0.3;
#X text 55 232 here's what i'm talking about:;
#X connect 1 0 0 0;
#X connect 1 0 9 0;
#X connect 1 0 3 0;
#X connect 2 0 7 0;
#X connect 4 0 7 1;
#X connect 7 0 1 0;
#X connect 8 0 5 0;
#X connect 9 0 8 0;
#X connect 9 0 6 0;
#X connect 10 0 15 0;
#X connect 12 0 13 0;
#X connect 13 0 11 0;
#X connect 17 0 16 0;
#X connect 18 0 19 0;
#X connect 19 0 2 0;
#X connect 20 0 1 0;
