#N canvas 202 192 743 459 10;
#X obj 228 183 / 12;
#X obj 262 211 int;
#X obj 236 229 -;
#X obj 101 101 cnv 20 60 20 empty \$0-color empty 20 12 0 14 -262144
-262144 0;
#X msg 470 135 bang;
#N canvas 15 207 508 444 RGB_____________ 0;
#X obj 97 56 inlet;
#X obj 262 53 inlet;
#X obj 339 55 inlet;
#X obj 405 56 inlet;
#X obj 97 270 bang;
#X msg 77 295 0;
#X msg 104 295 1;
#X obj 146 268 bang;
#X msg 132 295 0;
#X msg 160 295 1;
#X obj 265 313 spigot;
#X obj 312 313 spigot;
#X obj 249 385 outlet;
#X text 93 33 select;
#X text 267 28 red;
#X text 337 30 green;
#X text 409 30 blue;
#X obj 405 102 t b f;
#X obj 339 160 +;
#X obj 339 185 t b f;
#X obj 339 216 +;
#X obj 296 385 outlet;
#X obj 28 180 loadbang;
#X obj 296 361 f;
#X obj 249 361 f;
#X obj 339 247 - 1;
#X obj 97 135 route back label bang;
#X obj 235 168 t b b b;
#X obj 262 79 * -65536;
#X obj 405 80 * -1;
#X obj 339 81 * -256;
#X connect 0 0 26 0;
#X connect 1 0 28 0;
#X connect 2 0 30 0;
#X connect 3 0 29 0;
#X connect 4 0 5 0;
#X connect 4 0 6 0;
#X connect 5 0 11 1;
#X connect 6 0 10 1;
#X connect 7 0 8 0;
#X connect 7 0 9 0;
#X connect 8 0 10 1;
#X connect 9 0 11 1;
#X connect 10 0 24 1;
#X connect 11 0 23 1;
#X connect 17 0 18 0;
#X connect 17 0 27 0;
#X connect 17 1 18 1;
#X connect 18 0 19 0;
#X connect 19 0 20 0;
#X connect 19 1 20 1;
#X connect 20 0 25 0;
#X connect 22 0 6 0;
#X connect 23 0 21 0;
#X connect 24 0 12 0;
#X connect 25 0 11 0;
#X connect 25 0 10 0;
#X connect 26 0 4 0;
#X connect 26 1 7 0;
#X connect 26 2 27 0;
#X connect 27 0 24 0;
#X connect 27 1 23 0;
#X connect 27 2 25 0;
#X connect 28 0 20 0;
#X connect 28 0 27 0;
#X connect 29 0 17 0;
#X connect 30 0 18 0;
#X connect 30 0 27 0;
#X restore 507 196 pd RGB_____________;
#X obj 509 224 pack 0 0;
#X obj 228 311 sin;
#X obj 264 308 cos;
#X obj 302 317 tan;
#X obj 341 268 expr ($f1+1)*128;
#X obj 235 273 * 3.141;
#X obj 101 124 vsl 20 40 0 255 0 0 empty empty empty 0 -8 0 10 -258113
-1 -1 3900 1;
#X obj 121 124 vsl 20 40 0 255 0 0 empty empty empty 0 -8 0 10 -4034
-1 -1 3900 1;
#X obj 141 124 vsl 20 40 0 255 0 0 empty empty empty 0 -8 0 10 -4160
-1 -1 3900 1;
#X obj 520 131 int;
#X obj 560 141 int;
#X obj 600 151 int;
#X obj 331 238 expr ($f1)*256;
#X obj 367 298 expr ($f1-1)*-128;
#X obj 227 126 inlet;
#X text 227 106 receive midi;
#X msg 510 272 color \$1 \$2;
#X obj 522 314 s \$0-color;
#X obj 488 391 outlet;
#X obj 569 391 outlet;
#X obj 587 346 pack f f f;
#X obj 627 298 / 255;
#X obj 607 278 / 255;
#X obj 587 258 / 255;
#X text 132 348 questions \, updates?;
#X text 136 358 xtact sunji.roaoul@gmail.com;
#X text 502 414 RGB color out;
#X text 300 175 a relationship between;
#X text 354 185 the color wheel;
#X text 345 195 and the circle of 5ths;
#X obj 594 310 bang;
#X connect 0 0 1 0;
#X connect 0 0 2 0;
#X connect 1 0 2 1;
#X connect 2 0 11 0;
#X connect 4 0 5 0;
#X connect 5 0 6 0;
#X connect 5 1 6 1;
#X connect 6 0 22 0;
#X connect 6 0 24 0;
#X connect 7 0 18 0;
#X connect 8 0 10 0;
#X connect 8 0 19 0;
#X connect 10 0 12 0;
#X connect 11 0 7 0;
#X connect 11 0 8 0;
#X connect 11 0 9 0;
#X connect 12 0 15 0;
#X connect 13 0 16 0;
#X connect 14 0 17 0;
#X connect 15 0 5 1;
#X connect 15 0 29 0;
#X connect 16 0 5 2;
#X connect 16 0 28 0;
#X connect 17 0 5 3;
#X connect 17 0 27 0;
#X connect 18 0 13 0;
#X connect 19 0 14 0;
#X connect 20 0 0 0;
#X connect 22 0 23 0;
#X connect 26 0 25 0;
#X connect 27 0 26 2;
#X connect 27 0 36 0;
#X connect 28 0 26 1;
#X connect 28 0 36 0;
#X connect 29 0 26 0;
#X connect 36 0 26 0;
#X coords 0 -1 1 1 62 68 1 100 100;
