#N canvas 1 428 1009 336 10;
#X obj 697 29 random 360;
#X obj 695 122 route 0 1 2;
#X obj 622 79 % 3;
#X obj 653 80 int;
#X obj 643 102 + 1;
#X obj 657 58 bang;
#X obj 722 100 pack;
#X obj 697 55 trigger b f;
#X msg 715 180 add2 \$1;
#X msg 762 239 add2 \$1;
#X msg 685 147 set \$1;
#X msg 694 265 3 31 317;
#X obj 734 208 t b b f;
#X obj 698 4 until 3;
#X msg 698 -18 3;
#N canvas 1 97 450 300 window 0;
#X obj 130 169 gemwin;
#X msg 119 126 create;
#X msg 61 117 destroy;
#X msg 34 151 dimen 1024 768;
#X msg 47 183 1;
#X obj 80 196 tgl 15 0 empty empty empty 17 7 0 10 -262144 -1 -1 1
1;
#X obj 60 30 loadbang;
#X obj 80 59 t b b b;
#X msg 173 128 dimen 600 400;
#X connect 1 0 0 0;
#X connect 2 0 0 0;
#X connect 3 0 0 0;
#X connect 4 0 5 0;
#X connect 5 0 0 0;
#X connect 6 0 7 0;
#X connect 7 0 4 0;
#X connect 7 1 1 0;
#X connect 7 2 8 0;
#X connect 8 0 0 0;
#X restore -68 107 pd window;
#X obj 358 290 s mailman;
#X msg 235 218 all clear;
#X msg 242 244 0;
#X obj 400 215 t b s;
#X obj 387 250 pack f symbol;
#X obj 188 4 gemkeyname;
#X obj 271 -7 gemkeyname;
#X obj 252 94 sel Return BackSpace;
#X obj 503 230 s mailman;
#X obj 193 79 loadbang;
#X obj 176 114 del 1000;
#X obj 191 168 metro 50;
#X msg 241 141 1;
#X msg 197 137 0;
#N canvas 569 369 450 300 it 0;
#X obj 126 51 inlet;
#X obj 119 242 outlet;
#X obj 166 148 list split 1;
#X msg 173 117;
#X floatatom 141 197 5 0 0 0 - - -;
#X obj 288 141 prepend set;
#X msg 223 83 add2 \$1;
#X obj 102 113 metro 300;
#X obj 44 98 loadbang;
#X msg 53 123 1;
#X connect 0 0 6 0;
#X connect 2 0 4 0;
#X connect 2 1 5 0;
#X connect 3 0 2 0;
#X connect 5 0 3 0;
#X connect 6 0 3 0;
#X connect 7 0 3 0;
#X connect 8 0 9 0;
#X connect 9 0 7 0;
#X restore 111 33 pd it goes here;
#N canvas 999 386 450 300 speedlimit 0;
#X obj 126 51 inlet;
#X obj 119 242 outlet;
#X obj 166 148 list split 1;
#X msg 173 117;
#X obj 288 141 prepend set;
#X msg 223 83 add2 \$1;
#X obj 102 113 metro 300;
#X obj 44 98 loadbang;
#X msg 53 123 1;
#X floatatom 135 81 5 0 0 0 - - -;
#X connect 0 0 5 0;
#X connect 2 0 1 0;
#X connect 2 1 4 0;
#X connect 3 0 2 0;
#X connect 4 0 3 0;
#X connect 5 0 3 0;
#X connect 6 0 3 0;
#X connect 7 0 8 0;
#X connect 8 0 6 0;
#X connect 9 0 6 1;
#X restore 397 193 pd speedlimit;
#X obj 323 116 sel Control_L Caps_Lock;
#X floatatom 502 108 5 0 0 0 - - -;
#X msg 503 128 \$1 clear;
#X obj 399 85 print mailman;
#X obj 351 178 int;
#X obj 311 188 + 1;
#X obj 305 165 % 36;
#X obj 282 15 pack f s;
#X obj 291 38 route 1;
#X obj 280 66 symbol;
#X obj 496 53 shell;
#X obj 499 78 print;
#X msg 455 28 python wikichomp.webify.py cure;
#X obj 589 234 pack;
#X obj 589 261 s mouse.pos;
#X obj 591 204 gemmouse 22 16;
#X msg 577 154 6 move -0 4 1;
#X msg 556 178 1 .;
#X msg 817 145 \$1 move \$2 \$3 \$4;
#N canvas 709 516 267 248 formcube 0;
#X obj 7 216 outlet;
#X obj 8 185 pack f f f f;
#X obj 112 35 + 1;
#X obj 80 71 t f f;
#X obj -2 78 metro 125;
#X obj 126 59 tgl 15 0 empty empty empty 17 7 0 10 -262144 -1 -1 0
1;
#X obj 71 37 int 0;
#X msg 53 11 0;
#X obj 168 18 inlet;
#X obj 157 48 t f b;
#X floatatom 104 136 5 0 0 0 - - -;
#X floatatom 142 107 5 0 0 0 - - -;
#X floatatom 141 122 5 0 0 0 - - -;
#X floatatom 139 138 5 0 0 0 - - -;
#X obj 41 120 % 14;
#X obj 74 122 % 29;
#X obj 1 119 % 19;
#X obj -3 152 * 1.6;
#X obj 42 148 * 1.6;
#X obj 79 158 * 1.6;
#X connect 1 0 0 0;
#X connect 2 0 6 1;
#X connect 3 0 1 0;
#X connect 3 1 14 0;
#X connect 3 1 15 0;
#X connect 3 1 16 0;
#X connect 4 0 6 0;
#X connect 5 0 4 0;
#X connect 6 0 2 0;
#X connect 6 0 3 0;
#X connect 6 0 10 0;
#X connect 7 0 6 0;
#X connect 8 0 9 0;
#X connect 9 0 5 0;
#X connect 9 1 7 0;
#X connect 14 0 12 0;
#X connect 14 0 18 0;
#X connect 15 0 13 0;
#X connect 15 0 19 0;
#X connect 16 0 11 0;
#X connect 16 0 17 0;
#X connect 17 0 1 1;
#X connect 18 0 1 2;
#X connect 19 0 1 3;
#X coords 0 -1 1 1 85 60 1 100 100;
#X restore 838 63 pd formcube;
#N canvas 28 443 550 285 camera 0;
#X obj 98 107 camera;
#X obj 98 5 gemhead;
#X obj 81 55 tgl 15 0 empty empty reverse 0 -6 0 8 -262144 -1 -1 0
1;
#X obj 68 12 tgl 15 0 empty empty forward 0 -6 0 8 -262144 -1 -1 0
1;
#X obj 53 28 tgl 15 0 empty empty left 0 -6 0 8 -262144 -1 -1 0 1;
#X obj 79 26 tgl 15 0 empty empty right 0 -6 0 8 -262144 -1 -1 0 1
;
#X msg 68 27 left \$1;
#X msg 94 26 right \$1;
#X obj 7 57 tgl 15 0 empty empty down 0 -6 0 8 -262144 -1 -1 0 1;
#X obj 33 35 tgl 15 0 empty empty up 0 -6 0 8 -262144 -1 -1 0 1;
#X msg 33 51 up \$1;
#X msg 7 73 down \$1;
#X msg 171 142 reset;
#X msg 104 30 forward \$1;
#X msg 81 58 reverse \$1;
#X msg 4 150 speed \$1;
#X floatatom 4 132 5 0 0 0 - - -;
#X floatatom 5 93 5 0 0 1 distance - -;
#X msg 144 48 lookX \$1;
#X msg 144 75 lookY \$1;
#X msg 144 101 lookZ \$1;
#X floatatom 113 48 5 0 0 0 lookx - -;
#X floatatom 113 101 5 0 0 0 lookz - -;
#X floatatom 113 74 5 0 0 0 looky - -;
#X msg 5 111 distance \$1;
#X msg 86 149 1;
#X obj 86 127 loadbang;
#X obj 281 114 metro 2000;
#X obj 294 183 loadbang;
#X msg 191 174 0;
#X msg 277 226 1;
#X obj 341 0 r direction;
#X obj 335 53 sel L R U D;
#X obj 360 103 int 0;
#X floatatom 374 134 5 0 0 0 - - -;
#X obj 416 98 + 1;
#X obj 334 26 symbol;
#X obj 136 128 bng 15 250 50 0 empty empty empty 17 7 0 10 -262144
-1 -1;
#X connect 1 0 0 0;
#X connect 2 0 14 0;
#X connect 3 0 13 0;
#X connect 4 0 6 0;
#X connect 5 0 7 0;
#X connect 6 0 0 0;
#X connect 7 0 0 0;
#X connect 8 0 11 0;
#X connect 9 0 10 0;
#X connect 10 0 0 0;
#X connect 11 0 0 0;
#X connect 12 0 0 0;
#X connect 13 0 0 0;
#X connect 14 0 0 0;
#X connect 15 0 0 0;
#X connect 16 0 15 0;
#X connect 17 0 24 0;
#X connect 18 0 0 0;
#X connect 19 0 0 0;
#X connect 20 0 0 0;
#X connect 21 0 18 0;
#X connect 22 0 20 0;
#X connect 23 0 19 0;
#X connect 24 0 0 0;
#X connect 25 0 16 0;
#X connect 26 0 25 0;
#X connect 30 0 5 0;
#X connect 30 0 9 0;
#X connect 31 0 36 0;
#X connect 32 0 4 0;
#X connect 32 0 33 0;
#X connect 32 1 5 0;
#X connect 32 1 33 0;
#X connect 32 2 9 0;
#X connect 32 2 33 0;
#X connect 32 3 8 0;
#X connect 32 3 33 0;
#X connect 33 0 35 0;
#X connect 33 0 34 0;
#X connect 35 0 33 1;
#X connect 36 0 32 0;
#X coords 0 -1 1 1 170 150 1 0 0;
#X restore -58 156 pd camera;
#X obj 825 63 tgl 15 0 empty empty empty 17 7 0 10 -262144 -1 -1 0
1;
#X msg 831 37 1;
#N canvas 671 580 266 162 selLRUD 0;
#X obj 44 10 inlet;
#X obj 144 128 outlet;
#X obj 54 46 sel Left Right Up Down;
#X msg 28 83 L;
#X msg 61 85 R;
#X msg 96 87 U;
#X msg 119 84 D;
#X obj 46 130 s direction;
#X connect 0 0 2 0;
#X connect 2 0 3 0;
#X connect 2 1 4 0;
#X connect 2 2 5 0;
#X connect 2 3 6 0;
#X connect 2 4 1 0;
#X connect 3 0 7 0;
#X connect 4 0 7 0;
#X connect 5 0 7 0;
#X connect 6 0 7 0;
#X restore 417 153 pd selLRUD;
#N canvas 475 296 365 294 lettercontrol 0;
#X obj 149 34 netreceive 98989;
#X floatatom 242 54 5 0 0 0 - - -;
#X obj 87 135 list append;
#X obj 68 77 inlet;
#X obj 77 205 outlet;
#X obj 179 191 outlet;
#X obj 132 86 t b l;
#X text 179 168 bang letter instantiator;
#N canvas 356 524 216 236 mailmandecoder 0;
#X obj -149 9 inlet;
#X obj -157 34 list split 1;
#X obj -137 56 list split 1;
#X obj -197 106 list prepend;
#X obj -104 111 list prepend;
#X msg -106 152 \$1 move \$2 \$3 \$4;
#X obj -127 188 list;
#X obj -188 190 list;
#X obj -87 176 bang;
#X obj -86 200 del 100;
#X obj -166 137 bang;
#X obj -165 161 del 100;
#X obj -148 215 s mailman;
#X connect 0 0 1 0;
#X connect 1 0 3 1;
#X connect 1 0 4 1;
#X connect 1 1 2 0;
#X connect 2 0 3 0;
#X connect 2 1 4 0;
#X connect 3 0 7 1;
#X connect 3 0 10 0;
#X connect 4 0 5 0;
#X connect 5 0 6 1;
#X connect 5 0 8 0;
#X connect 6 0 12 0;
#X connect 7 0 12 0;
#X connect 8 0 9 0;
#X connect 9 0 6 0;
#X connect 10 0 11 0;
#X connect 11 0 7 0;
#X restore 58 269 pd mailmandecoder;
#X msg 188 111 c 45 76 12;
#X obj 23 80 inlet;
#X text 162 72 receive a list:;
#X text 172 83 letter \, xyz position;
#X obj 142 57 list;
#X obj 59 105 pipe 50;
#X connect 0 0 13 0;
#X connect 0 1 1 0;
#X connect 2 0 8 0;
#X connect 3 0 14 0;
#X connect 6 0 5 0;
#X connect 6 1 2 1;
#X connect 9 0 2 1;
#X connect 13 0 6 0;
#X connect 14 0 2 0;
#X restore -69 133 pd lettercontrol;
#N canvas 70 465 235 269 lettermaker 0;
#N canvas 410 159 94 605 letterarray 0;
#X obj 10 20 letter 0;
#X obj 10 40 letter 1;
#X obj 10 60 letter 2;
#X obj 10 80 letter 3;
#X obj 10 100 letter 4;
#X obj 10 120 letter 5;
#X obj 10 140 letter 6;
#X obj 10 160 letter 7;
#X obj 10 180 letter 8;
#X obj 10 200 letter 9;
#X restore 32 43 pd letterarray;
#X obj -32 101 pack f f;
#X obj -18 49 t f f;
#X obj 20 15 + 1;
#X obj -40 25 bng 15 250 50 0 empty empty empty 17 7 0 10 -262144 -1
-1;
#X obj -31 1 inlet;
#X obj -34 238 outlet;
#X obj -32 75 expr ($f1*20)+20;
#X obj -22 25 int 0;
#X msg -41 165 \; pd-letterarray obj 10 \$1 letter \$2;
#X obj -30 125 t b l;
#X obj 17 144 f;
#X text 44 113 bang me to instantiate;
#X text 46 123 a new letter object;
#X text 46 135 once created \, output;
#X text 51 146 is id# of letter;
#X msg 35 239 \; pd-letterarray clear;
#X obj -23 264 loadbang;
#X obj -16 204 pipe 30;
#X msg 62 23 0;
#X msg 45 203 \; mailman \$1 clear;
#X obj 107 98 s loadbang;
#X obj 92 68 t f b;
#X connect 1 0 10 0;
#X connect 2 0 7 0;
#X connect 2 1 1 1;
#X connect 2 1 11 1;
#X connect 3 0 8 1;
#X connect 4 0 8 0;
#X connect 5 0 4 0;
#X connect 7 0 1 0;
#X connect 8 0 3 0;
#X connect 8 0 2 0;
#X connect 10 0 11 0;
#X connect 10 1 9 0;
#X connect 11 0 18 0;
#X connect 11 0 22 0;
#X connect 17 0 16 0;
#X connect 18 0 6 0;
#X connect 19 0 8 1;
#X connect 22 0 20 0;
#X connect 22 1 21 0;
#X restore 36 131 pd lettermaker;
#N canvas 164 604 131 160 lettertest 1;
#X obj 52 84 netsend;
#X msg 54 47 connect localhost 98989;
#X floatatom 68 116 5 0 0 0 - - -;
#X msg 18 29 send b 0 2 3;
#X connect 0 0 2 0;
#X connect 1 0 0 0;
#X connect 3 0 0 0;
#X restore 7 56 pd lettertest;
#X obj 403 52 r mailman;
#X connect 0 0 7 0;
#X connect 1 0 10 0;
#X connect 1 1 8 0;
#X connect 1 2 12 0;
#X connect 2 0 3 1;
#X connect 3 0 4 0;
#X connect 3 0 6 0;
#X connect 4 0 2 0;
#X connect 5 0 3 0;
#X connect 6 0 1 0;
#X connect 7 0 5 0;
#X connect 7 1 6 1;
#X connect 8 0 11 0;
#X connect 9 0 11 0;
#X connect 10 0 11 0;
#X connect 12 1 11 0;
#X connect 12 2 9 0;
#X connect 13 0 0 0;
#X connect 14 0 13 0;
#X connect 17 0 16 0;
#X connect 17 0 18 0;
#X connect 18 0 36 1;
#X connect 19 0 36 0;
#X connect 19 1 20 1;
#X connect 20 0 16 0;
#X connect 22 0 39 0;
#X connect 22 1 39 1;
#X connect 23 1 17 0;
#X connect 23 2 32 0;
#X connect 25 0 26 0;
#X connect 25 0 28 0;
#X connect 26 0 29 0;
#X connect 27 0 17 0;
#X connect 28 0 27 0;
#X connect 29 0 27 0;
#X connect 31 0 19 0;
#X connect 32 2 55 0;
#X connect 33 0 34 0;
#X connect 34 0 24 0;
#X connect 36 0 38 0;
#X connect 37 0 36 1;
#X connect 37 0 20 0;
#X connect 38 0 37 0;
#X connect 39 0 40 0;
#X connect 40 0 41 0;
#X connect 41 0 23 0;
#X connect 42 0 43 0;
#X connect 44 0 42 0;
#X connect 45 0 46 0;
#X connect 47 0 45 0;
#X connect 47 1 45 1;
#X connect 48 0 24 0;
#X connect 49 0 24 0;
#X connect 50 0 24 0;
#X connect 51 0 50 0;
#X connect 53 0 51 0;
#X connect 54 0 53 0;
#X connect 55 0 31 0;
#X connect 56 1 57 0;
#X connect 57 0 56 1;
#X connect 59 0 35 0;
