#N canvas 12 426 1009 336 10;
#X obj 697 29 random 360;
#X obj 695 122 route 0 1 2;
#X obj 622 79 % 3;
#X obj 653 80 int;
#X obj 643 102 + 1;
#X obj 657 58 bang;
#X obj 722 100 pack;
#X obj 697 55 trigger b f;
#X msg 715 180 add2 \$1;
#X msg 762 239 add2 \$1;
#X msg 685 147 set \$1;
#X msg 694 265 3 31 317;
#X obj 734 208 t b b f;
#X obj 698 4 until 3;
#X msg 698 -18 3;
#N canvas 1 104 450 300 window 0;
#X obj 130 169 gemwin;
#X msg 119 126 create;
#X msg 61 117 destroy;
#X msg 34 151 dimen 1024 768;
#X msg 47 183 1;
#X obj 80 196 tgl 15 0 empty empty empty 17 7 0 10 -262144 -1 -1 1
1;
#X obj 60 30 loadbang;
#X obj 80 59 t b b b;
#X connect 1 0 0 0;
#X connect 2 0 0 0;
#X connect 3 0 0 0;
#X connect 4 0 5 0;
#X connect 5 0 0 0;
#X connect 6 0 7 0;
#X connect 7 0 4 0;
#X connect 7 1 1 0;
#X connect 7 2 3 0;
#X restore 84 101 pd window;
#X obj 358 290 s mailman;
#X msg 235 218 all clear;
#X msg 242 244 0;
#X obj 400 215 t b s;
#X obj 387 250 pack f symbol;
#X obj 188 4 gemkeyname;
#X obj 271 -7 gemkeyname;
#N canvas 155 52 866 708 letterarray 0;
#X obj 32 89 letter 3;
#X obj 67 145 letter 6;
#X obj 22 49 letter 1;
#X obj 67 65 letter 2;
#X obj 77 105 letter 4;
#X obj 22 129 letter 5;
#X obj -38 159 letter 7;
#X obj 7 175 letter 8;
#X obj -28 199 letter 9;
#X obj 17 215 letter 10;
#X obj -39 239 letter 11;
#X obj 7 255 letter 12;
#X obj 172 99 letter 13;
#X obj 217 115 letter 14;
#X obj 162 139 letter 15;
#X obj 207 155 letter 16;
#X obj 102 169 letter 17;
#X obj 147 185 letter 18;
#X obj 112 209 letter 19;
#X obj 157 225 letter 20;
#X obj 101 249 letter 21;
#X obj 148 265 letter 22;
#X obj 243 189 letter 23;
#X obj 288 205 letter 24;
#X obj 232 229 letter 25;
#X obj 277 245 letter 26;
#X obj 207 311 letter 31;
#X obj 252 327 letter 32;
#X obj 217 351 letter 33;
#X obj 262 367 letter 34;
#X obj 207 391 letter 35;
#X obj 252 407 letter 36;
#X obj 192 437 letter 38;
#X obj 147 421 letter 37;
#X obj 157 461 letter 39;
#X obj 202 477 letter 40;
#X obj 337 331 letter 41;
#X obj 382 347 letter 42;
#X obj 347 371 letter 43;
#X obj 392 387 letter 44;
#X obj 337 411 letter 45;
#X obj 382 427 letter 46;
#X obj 277 441 letter 47;
#X obj 322 457 letter 48;
#X obj 287 481 letter 49;
#X obj 332 497 letter 30;
#X obj 35 494 letter 27;
#X obj 80 510 letter 28;
#X obj 29 339 letter 229;
#X obj 397 376 letter 41;
#X obj 442 392 letter 42;
#X obj 407 416 letter 43;
#X obj 452 432 letter 44;
#X obj 397 456 letter 45;
#X obj 442 472 letter 46;
#X obj 337 486 letter 47;
#X obj 382 502 letter 48;
#X obj 347 526 letter 49;
#X obj 392 542 letter 30;
#X obj 253 519 letter 41;
#X obj 298 535 letter 42;
#X obj 263 559 letter 43;
#X obj 308 575 letter 44;
#X obj 253 599 letter 45;
#X obj 298 615 letter 46;
#X obj 193 629 letter 47;
#X obj 238 645 letter 48;
#X obj 203 669 letter 49;
#X obj 248 685 letter 30;
#X obj 347 341 letter 41;
#X obj 392 357 letter 42;
#X obj 357 381 letter 43;
#X obj 402 397 letter 44;
#X obj 347 421 letter 45;
#X obj 392 437 letter 46;
#X obj 332 467 letter 48;
#X obj 342 507 letter 30;
#X obj 407 386 letter 41;
#X obj 452 402 letter 42;
#X obj 417 426 letter 43;
#X obj 462 442 letter 44;
#X obj 407 466 letter 45;
#X obj 452 482 letter 46;
#X obj 347 496 letter 47;
#X obj 392 512 letter 48;
#X obj 357 536 letter 49;
#X obj 402 552 letter 30;
#X obj 357 351 letter 41;
#X obj 402 367 letter 42;
#X obj 367 391 letter 43;
#X obj 412 407 letter 44;
#X obj 357 431 letter 45;
#X obj 402 447 letter 46;
#X obj 342 477 letter 48;
#X obj 352 517 letter 30;
#X obj 417 396 letter 41;
#X obj 462 412 letter 42;
#X obj 427 436 letter 43;
#X obj 472 452 letter 44;
#X obj 417 476 letter 45;
#X obj 462 492 letter 46;
#X obj 357 506 letter 47;
#X obj 402 522 letter 48;
#X obj 367 546 letter 49;
#X obj 412 562 letter 30;
#X restore 91 67 pd letterarray;
#X obj 252 94 sel Return BackSpace;
#X obj 503 230 s mailman;
#X obj 193 79 loadbang;
#X obj 176 114 del 1000;
#X obj 174 175 metro 50;
#X msg 241 141 1;
#X msg 197 137 0;
#X obj 219 30 textfile;
#N canvas 573 371 450 300 it 0;
#X obj 126 51 inlet;
#X obj 119 242 outlet;
#X obj 166 148 list split 1;
#X msg 173 117;
#X floatatom 141 197 5 0 0 0 - - -;
#X obj 288 141 prepend set;
#X msg 223 83 add2 \$1;
#X obj 102 113 metro 300;
#X obj 44 98 loadbang;
#X msg 53 123 1;
#X connect 0 0 6 0;
#X connect 2 0 4 0;
#X connect 2 1 5 0;
#X connect 3 0 2 0;
#X connect 5 0 3 0;
#X connect 6 0 3 0;
#X connect 7 0 3 0;
#X connect 8 0 9 0;
#X connect 9 0 7 0;
#X restore 111 33 pd it goes here;
#N canvas 999 386 450 300 speedlimit 0;
#X obj 126 51 inlet;
#X obj 119 242 outlet;
#X obj 166 148 list split 1;
#X msg 173 117;
#X obj 288 141 prepend set;
#X msg 223 83 add2 \$1;
#X obj 102 113 metro 300;
#X obj 44 98 loadbang;
#X msg 53 123 1;
#X floatatom 135 81 5 0 0 0 - - -;
#X connect 0 0 5 0;
#X connect 2 0 1 0;
#X connect 2 1 4 0;
#X connect 3 0 2 0;
#X connect 4 0 3 0;
#X connect 5 0 3 0;
#X connect 6 0 3 0;
#X connect 7 0 8 0;
#X connect 8 0 6 0;
#X connect 9 0 6 1;
#X restore 393 172 pd speedlimit;
#X obj 422 147 bng 15 250 50 0 empty empty empty 17 7 0 10 -262144
-1 -1;
#X obj 337 122 sel Control_L Caps_Lock;
#X obj 395 61 r mailman;
#X floatatom 502 108 5 0 0 0 - - -;
#X msg 503 128 \$1 clear;
#X obj 399 85 print mailman;
#X obj 351 178 int;
#X obj 311 188 + 1;
#X obj 305 165 % 36;
#X obj 282 15 pack f s;
#X obj 291 38 route 1;
#X obj 280 66 symbol;
#X obj 496 53 shell;
#X obj 499 78 print;
#X msg 455 28 python wikichomp.webify.py cure;
#X obj 589 234 pack;
#X obj 589 261 s mouse.pos;
#X obj 591 204 gemmouse 22 16;
#X msg 577 154 6 move -0 4 1;
#X msg 556 178 1 .;
#X msg 817 145 \$1 move \$2 \$3 \$4;
#N canvas 717 516 267 248 formcube 0;
#X obj 5 187 outlet;
#X obj 6 156 pack f f f f;
#X obj 112 35 + 1;
#X obj 80 71 t f f;
#X obj -2 78 metro 125;
#X obj 126 59 tgl 15 0 empty empty empty 17 7 0 10 -262144 -1 -1 0
1;
#X obj 71 37 int 0;
#X msg 53 11 0;
#X obj 168 18 inlet;
#X obj 157 48 t f b;
#X floatatom 104 136 5 0 0 0 - - -;
#X floatatom 142 107 5 0 0 0 - - -;
#X floatatom 141 122 5 0 0 0 - - -;
#X floatatom 139 138 5 0 0 0 - - -;
#X obj 41 120 % 14;
#X obj 74 122 % 29;
#X obj 1 119 % 19;
#X connect 1 0 0 0;
#X connect 2 0 6 1;
#X connect 3 0 1 0;
#X connect 3 1 14 0;
#X connect 3 1 15 0;
#X connect 3 1 16 0;
#X connect 4 0 6 0;
#X connect 5 0 4 0;
#X connect 6 0 2 0;
#X connect 6 0 3 0;
#X connect 6 0 10 0;
#X connect 7 0 6 0;
#X connect 8 0 9 0;
#X connect 9 0 5 0;
#X connect 9 1 7 0;
#X connect 14 0 1 2;
#X connect 14 0 12 0;
#X connect 15 0 1 3;
#X connect 15 0 13 0;
#X connect 16 0 1 1;
#X connect 16 0 11 0;
#X coords 0 -1 1 1 85 60 1 100 100;
#X restore 838 63 pd formcube;
#N canvas 38 448 401 273 camera 0;
#X obj 98 107 camera;
#X obj 98 5 gemhead;
#X obj 80 40 tgl 15 0 empty empty reverse 0 -6 0 8 -262144 -1 -1 0
1;
#X obj 104 23 tgl 15 0 empty empty forward 0 -6 0 8 -262144 -1 -1 0
1;
#X obj 160 53 tgl 15 0 empty empty left 0 -6 0 8 -262144 -1 -1 0 1
;
#X obj 186 31 tgl 15 0 empty empty right 0 -6 0 8 -262144 -1 -1 0 1
;
#X msg 175 52 left \$1;
#X msg 201 30 right \$1;
#X obj 7 57 tgl 15 0 empty empty down 0 -6 0 8 -262144 -1 -1 0 1;
#X obj 33 35 tgl 15 0 empty empty up 0 -6 0 8 -262144 -1 -1 0 1;
#X msg 33 51 up \$1;
#X msg 7 73 down \$1;
#X msg 191 6 reset;
#X msg 104 40 forward \$1;
#X msg 81 58 reverse \$1;
#X msg 4 150 speed \$1;
#X floatatom 4 132 5 0 0 0 - - -;
#X floatatom 5 93 5 0 0 0 - - -;
#X msg 201 77 lookX \$1;
#X msg 201 104 lookY \$1;
#X msg 201 130 lookZ \$1;
#X floatatom 170 77 5 0 0 0 lookx - -;
#X floatatom 170 130 5 0 0 0 lookz - -;
#X floatatom 170 103 5 0 0 0 looky - -;
#X msg 5 111 distance \$1;
#X msg 86 149 1;
#X obj 86 127 loadbang;
#X obj 281 114 metro 2000;
#X obj 278 143;
#X obj 294 183 loadbang;
#X msg 191 174 0;
#X msg 144 162 1;
#X connect 1 0 0 0;
#X connect 2 0 14 0;
#X connect 3 0 13 0;
#X connect 4 0 6 0;
#X connect 5 0 7 0;
#X connect 6 0 0 0;
#X connect 7 0 0 0;
#X connect 8 0 11 0;
#X connect 9 0 10 0;
#X connect 10 0 0 0;
#X connect 11 0 0 0;
#X connect 12 0 0 0;
#X connect 13 0 0 0;
#X connect 14 0 0 0;
#X connect 15 0 0 0;
#X connect 16 0 15 0;
#X connect 17 0 24 0;
#X connect 18 0 0 0;
#X connect 19 0 0 0;
#X connect 20 0 0 0;
#X connect 21 0 18 0;
#X connect 22 0 20 0;
#X connect 23 0 19 0;
#X connect 24 0 0 0;
#X connect 25 0 16 0;
#X connect 26 0 25 0;
#X connect 29 0 31 0;
#X connect 31 0 5 0;
#X connect 31 0 9 0;
#X coords 0 -1 1 1 240 150 1 0 0;
#X restore 24 160 pd camera;
#X obj 825 63 tgl 15 0 empty empty empty 17 7 0 10 -262144 -1 -1 0
1;
#X obj 803 3 loadbang;
#X msg 831 37 1;
#X connect 0 0 7 0;
#X connect 1 0 10 0;
#X connect 1 1 8 0;
#X connect 1 2 12 0;
#X connect 2 0 3 1;
#X connect 3 0 4 0;
#X connect 3 0 6 0;
#X connect 4 0 2 0;
#X connect 5 0 3 0;
#X connect 6 0 1 0;
#X connect 7 0 5 0;
#X connect 7 1 6 1;
#X connect 8 0 11 0;
#X connect 9 0 11 0;
#X connect 10 0 11 0;
#X connect 12 1 11 0;
#X connect 12 2 9 0;
#X connect 13 0 0 0;
#X connect 14 0 13 0;
#X connect 17 0 16 0;
#X connect 17 0 18 0;
#X connect 18 0 40 1;
#X connect 19 0 40 0;
#X connect 19 1 20 1;
#X connect 20 0 16 0;
#X connect 22 0 43 0;
#X connect 22 1 43 1;
#X connect 24 1 17 0;
#X connect 24 2 35 0;
#X connect 26 0 27 0;
#X connect 26 0 29 0;
#X connect 27 0 30 0;
#X connect 28 0 17 0;
#X connect 29 0 28 0;
#X connect 30 0 28 0;
#X connect 33 0 19 0;
#X connect 35 1 34 0;
#X connect 35 2 33 0;
#X connect 36 0 39 0;
#X connect 37 0 38 0;
#X connect 38 0 25 0;
#X connect 40 0 42 0;
#X connect 41 0 40 1;
#X connect 41 0 20 0;
#X connect 42 0 41 0;
#X connect 43 0 44 0;
#X connect 44 0 45 0;
#X connect 45 0 24 0;
#X connect 46 0 47 0;
#X connect 48 0 46 0;
#X connect 49 0 50 0;
#X connect 51 0 49 0;
#X connect 51 1 49 1;
#X connect 52 0 25 0;
#X connect 53 0 25 0;
#X connect 54 0 25 0;
#X connect 55 0 54 0;
#X connect 57 0 55 0;
#X connect 58 0 59 0;
#X connect 59 0 57 0;
