#N canvas 430 192 775 559 12;
#X obj 108 57 midiin;
#X obj 270 61 notein;
#X obj 271 228 noteout;
#X obj 45 88 pack f f;
#X obj 341 92 pack f f f;
#X obj 89 221 midiout;
#X obj 265 173 + 36;
#N canvas 684 177 608 542 midilooper 0;
#X obj 142 90 inlet;
#X obj 184 507 outlet;
#X obj 254 507 outlet;
#X obj 324 507 outlet;
#X obj 142 115 unpack f f f;
#X obj 39 185 spigot;
#X obj 153 243 tabwrite~ note;
#X obj 146 173 sig~;
#X obj 449 474 array define note;
#X obj 354 266 array size note;
#N canvas 2 173 518 387 kickdrmCTL 0;
#X obj 96 28 sel 0;
#X obj 40 69 bang;
#X obj 86 123 + 1;
#X obj 40 119 int 0;
#X obj 53 147 % 3;
#X obj 55 177 sel 0 1 2;
#X obj 68 214 s start;
#X obj 68 264 s stop;
#X obj 48 21 inlet;
#X obj 68 239 s loop;
#X obj 102 101 cnv 15 78 26 empty looper empty 20 12 0 14 -66577 -262144
0;
#X obj 331 163 s looper;
#X msg 326 129 color \$1;
#X msg 375 94 2;
#X obj 271 38 r start;
#X obj 331 43 r loop;
#X obj 381 48 r stop;
#X msg 288 96 73;
#X msg 338 90 16;
#X connect 0 0 1 0;
#X connect 1 0 3 0;
#X connect 2 0 3 1;
#X connect 3 0 4 0;
#X connect 4 0 2 0;
#X connect 4 0 5 0;
#X connect 5 0 6 0;
#X connect 5 1 9 0;
#X connect 5 2 7 0;
#X connect 8 0 0 0;
#X connect 12 0 11 0;
#X connect 13 0 12 0;
#X connect 14 0 17 0;
#X connect 15 0 18 0;
#X connect 16 0 13 0;
#X connect 17 0 12 0;
#X connect 18 0 12 0;
#X coords 0 -1 1 1 85 30 1 100 100;
#X restore 40 209 pd kickdrmCTL;
#X obj 14 386 r start;
#X obj 13 410 bng 15 250 50 0 empty empty empty 17 7 0 10 -262144 -1
-1;
#X obj 29 433 bng 15 250 50 0 empty empty empty 17 7 0 10 -262144 -1
-1;
#X obj 45 456 bng 15 250 50 0 empty empty empty 17 7 0 10 -262144 -1
-1;
#X obj 46 432 r stop;
#X obj 30 409 r loop;
#X obj 239 45 r start;
#X obj 349 139 samplerate~;
#X obj 349 116 loadbang;
#X msg 269 128 1;
#X obj 239 71 t b b;
#X obj 269 195 int 0;
#X obj 375 236 *;
#X msg 333 58 0;
#X obj 328 29 r loop;
#X obj 323 198 + 1;
#X obj 389 86 bng 15 250 50 0 empty empty empty 17 7 0 10 -262144 -1
-1;
#N canvas 2 83 450 300 noteloop~ 0;
#X obj 143 147 tabplay~ note;
#X obj 154 39 r loop;
#X obj 312 33 r stop;
#X obj 261 115 spigot 1;
#X msg 325 81 0;
#X msg 233 70 1;
#X obj 131 187 snapshot~;
#X obj 255 194 bng 15 250 50 0 empty empty empty 17 7 0 10 -262144
-1 -1;
#X obj 140 259 outlet;
#X obj 76 125 metro 1;
#X obj 283 253 s downbeat;
#X connect 0 0 6 0;
#X connect 0 1 7 0;
#X connect 0 1 10 0;
#X connect 1 0 0 0;
#X connect 1 0 5 0;
#X connect 2 0 4 0;
#X connect 3 0 0 0;
#X connect 4 0 3 1;
#X connect 4 0 9 0;
#X connect 5 0 3 1;
#X connect 5 0 9 0;
#X connect 6 0 8 0;
#X connect 7 0 3 0;
#X connect 9 0 6 0;
#X restore 148 393 pd noteloop~;
#X obj 323 223 + 1;
#X obj 449 447 array define chan;
#X obj 449 422 array define velo;
#N canvas 158 428 450 300 veloloop~ 0;
#X obj 154 39 r loop;
#X obj 312 33 r stop;
#X obj 261 115 spigot 1;
#X msg 325 81 0;
#X msg 233 70 1;
#X obj 134 196 snapshot~;
#X obj 255 194 bng 15 250 50 0 empty empty empty 17 7 0 10 -262144
-1 -1;
#X obj 140 259 outlet;
#X obj 143 147 tabplay~ velo;
#X obj 76 125 metro 1;
#X connect 0 0 4 0;
#X connect 0 0 8 0;
#X connect 1 0 3 0;
#X connect 2 0 8 0;
#X connect 3 0 2 1;
#X connect 3 0 9 0;
#X connect 4 0 2 1;
#X connect 4 0 9 0;
#X connect 5 0 7 0;
#X connect 6 0 2 0;
#X connect 8 0 5 0;
#X connect 8 1 6 0;
#X connect 9 0 5 0;
#X restore 256 392 pd veloloop~;
#N canvas 351 169 450 300 chanloop~ 0;
#X obj 154 39 r loop;
#X obj 312 33 r stop;
#X obj 261 115 spigot 1;
#X msg 325 81 0;
#X msg 233 70 1;
#X obj 131 187 snapshot~;
#X obj 255 194 bng 15 250 50 0 empty empty empty 17 7 0 10 -262144
-1 -1;
#X obj 140 259 outlet;
#X obj 143 147 tabplay~ chan;
#X obj 76 125 metro 1;
#X connect 0 0 4 0;
#X connect 0 0 8 0;
#X connect 1 0 3 0;
#X connect 2 0 8 0;
#X connect 3 0 2 1;
#X connect 3 0 9 0;
#X connect 4 0 2 1;
#X connect 4 0 9 0;
#X connect 5 0 7 0;
#X connect 6 0 2 0;
#X connect 8 0 5 0;
#X connect 8 1 6 0;
#X connect 9 0 5 0;
#X restore 360 392 pd chanloop~;
#X obj 163 266 tabwrite~ velo;
#X obj 173 289 tabwrite~ chan;
#X obj 186 183 sig~;
#X obj 224 197 sig~;
#X floatatom 137 366 5 0 0 0 - - -;
#X floatatom 240 371 5 0 0 0 - - -;
#X floatatom 344 375 5 0 0 0 - - -;
#X obj 364 289 array size velo;
#X obj 374 312 array size chan;
#X obj 272 165 metro 1;
#X obj 381 199 * 0.001;
#X obj 172 458 int;
#X obj 238 472 t b f;
#X obj 239 423 change;
#X obj 29 92 r downbeat;
#X obj 30 116 bng 45 250 50 0 empty empty empty 17 7 0 10 -262144 -1
-1;
#X connect 0 0 4 0;
#X connect 4 0 5 0;
#X connect 4 0 7 0;
#X connect 4 1 5 1;
#X connect 4 1 36 0;
#X connect 4 2 37 0;
#X connect 5 0 10 0;
#X connect 7 0 6 0;
#X connect 11 0 12 0;
#X connect 15 0 14 0;
#X connect 16 0 13 0;
#X connect 17 0 21 0;
#X connect 18 0 44 0;
#X connect 19 0 18 0;
#X connect 20 0 43 0;
#X connect 21 0 6 0;
#X connect 21 0 34 0;
#X connect 21 0 35 0;
#X connect 21 1 20 0;
#X connect 22 0 26 0;
#X connect 23 0 9 0;
#X connect 23 0 41 0;
#X connect 23 0 42 0;
#X connect 24 0 22 1;
#X connect 24 0 43 0;
#X connect 25 0 24 0;
#X connect 26 0 22 1;
#X connect 26 0 29 0;
#X connect 27 0 18 0;
#X connect 28 0 38 0;
#X connect 28 0 45 1;
#X connect 29 0 23 0;
#X connect 32 0 39 0;
#X connect 32 0 47 0;
#X connect 33 0 40 0;
#X connect 33 0 3 0;
#X connect 36 0 34 0;
#X connect 37 0 35 0;
#X connect 43 0 22 0;
#X connect 44 0 23 1;
#X connect 45 0 1 0;
#X connect 46 0 45 0;
#X connect 46 1 2 0;
#X connect 47 0 46 0;
#X connect 48 0 49 0;
#X restore 333 119 pd midilooper;
#X obj 49 118 spigot;
#X obj 49 143 print midiin;
#X obj 108 119 tgl 15 0 empty empty empty 17 7 0 10 -262144 -1 -1 0
1;
#X obj 420 68 spigot;
#X obj 479 69 tgl 15 0 empty empty empty 17 7 0 10 -262144 -1 -1 1
1;
#X obj 420 93 print notein;
#X floatatom 223 197 5 0 0 0 - - -;
#X connect 0 0 3 0;
#X connect 0 0 5 0;
#X connect 0 1 3 1;
#X connect 0 1 5 1;
#X connect 1 0 4 0;
#X connect 1 0 6 0;
#X connect 1 1 4 1;
#X connect 1 1 2 1;
#X connect 1 2 4 2;
#X connect 1 2 2 2;
#X connect 3 0 8 0;
#X connect 4 0 7 0;
#X connect 4 0 11 0;
#X connect 6 0 2 0;
#X connect 6 0 14 0;
#X connect 7 0 6 0;
#X connect 7 1 2 1;
#X connect 7 2 2 2;
#X connect 8 0 9 0;
#X connect 10 0 8 1;
#X connect 11 0 13 0;
#X connect 12 0 11 1;
