#N canvas 203 177 583 400 10;
#X obj 300 21 table bullshit 48000;
#X obj 68 47 soundfiler;
#X msg 63 22 read -resize bullshit.wav bullshit;
#X obj 32 82 print;
#X obj 301 44 table bullrfft 426623;
#X obj 301 65 table bullrifft 426623;
#N canvas 188 399 505 267 stuffhappens 0;
#X obj -7 -75 tabwrite~ bullrfft;
#X obj 18 -53 tabwrite~ bullrifft;
#X obj 20 -142 bng 15 250 50 0 empty empty empty 17 7 0 10 -262144
-1 -1;
#X obj 31 -119 tabplay~ bullshit;
#X obj 166 -13 rifft~;
#X obj 31 -97 rfft~;
#X obj 325 -125 phasor~ 0.00123;
#X obj 190 -42 tabread4~ bullrifft;
#X obj 180 -62 tabread4~ bullrfft;
#X obj 328 -141 hsl 128 15 0.1 1 1 0 empty empty empty -2 -8 0 10 -262144
-1 -1 0 1;
#X obj 320 -62 tabread4~ bullshit;
#X obj 290 -97 *~ 426623;
#X floatatom 426 -126 5 0 0 0 - - -;
#X obj 150 -98 switch~ 1024 2 1;
#X obj 327 -172 inlet;
#X obj 164 14 outlet~;
#X obj 309 32 outlet~;
#X obj 151 -119 tgl 15 0 empty empty empty 17 7 0 10 -262144 -1 -1
0 1;
#X obj 154 -176 inlet;
#X msg 153 -142 1;
#X connect 2 0 0 0;
#X connect 2 0 1 0;
#X connect 2 0 3 0;
#X connect 3 0 5 0;
#X connect 4 0 15 0;
#X connect 5 0 0 0;
#X connect 5 1 1 0;
#X connect 6 0 11 0;
#X connect 7 0 4 1;
#X connect 8 0 4 0;
#X connect 9 0 6 0;
#X connect 9 0 12 0;
#X connect 10 0 16 0;
#X connect 11 0 10 0;
#X connect 11 0 8 0;
#X connect 11 0 7 0;
#X connect 14 0 9 0;
#X connect 17 0 13 0;
#X connect 18 0 11 1;
#X connect 18 0 2 0;
#X connect 18 0 19 0;
#X connect 19 0 17 0;
#X restore 35 136 pd stuffhappens;
#X obj 18 117 bng 15 250 50 0 empty empty empty 17 7 0 10 -262144 -1
-1;
#X obj 117 78 hsl 128 15 0.1 0.3 1 0 empty empty empty -2 -8 0 10 -262144
-1 -1 0 1;
#X floatatom 115 110 5 0 0 0 - - -;
#X obj 152 251 dac~;
#X obj 60 223 plugin~ pitchScale;
#X obj 145 312 print INFO;
#X msg 61 197 control pitch \$1;
#X obj 247 135 hsl 128 15 0.5 2 0 0 empty empty empty -2 -8 0 10 -262144
-1 -1 11007 1;
#X floatatom 270 160 5 0 0 0 - - -;
#X floatatom 192 147 5 0 0 0 - - -;
#X obj 190 109 expr -6*$f1+2.4;
#X obj 167 196 plugin~ pitchScale;
#X msg 269 221 control pitch \$1;
#X obj 294 182 hsl 128 15 0.5 2 0 0 empty empty empty -2 -8 0 10 -262144
-1 -1 0 1;
#X floatatom 299 200 5 0 0 0 - - -;
#N canvas 565 77 450 360 CorrespondingVideo 0;
#X obj 18 263 gemwin;
#X msg 44 209 dimen 320 240;
#X msg 31 189 create;
#X obj 11 190 tgl 15 0 empty empty empty 17 7 0 10 -262144 -1 -1 0
1;
#X msg 48 233 destroy;
#X obj 199 118 gemhead;
#X obj 278 290 pix_texture;
#X obj 264 191 bng 25 250 50 0 empty empty empty 0 -6 0 8 -262144 -1
-1;
#X floatatom 322 251 5 0 10000 1 frame# - -;
#X obj 264 220 openpanel;
#X msg 264 240 open \$1;
#X obj 271 269 pix_film;
#X obj 278 313 rectangle 5.2 3.8;
#X obj 380 199 int;
#X obj 349 192 + 1;
#X obj 380 177 bang;
#X obj 358 151 metro 67;
#X obj 337 154 tgl 15 0 empty empty empty 17 7 0 10 -262144 -1 -1 0
1;
#X msg 296 167 0;
#X floatatom 361 72 5 1 48 0 FramesPerSecond - -;
#X floatatom 362 119 5 0 0 0 msBetweenFrames - -;
#X obj 362 96 expr 1000/$f1;
#X msg 330 210 2100;
#X floatatom 361 32 5 0.5 2 0 SpeedCoefficient - -;
#X obj 361 51 expr $f1*24;
#X obj 367 9 inlet;
#X obj 139 320 shell;
#X msg 114 266 avconv -i \$1 audio.wav;
#X msg 135 289 avconv -i \$1 audio.mp4;
#X connect 1 0 0 0;
#X connect 2 0 0 0;
#X connect 3 0 0 0;
#X connect 4 0 0 0;
#X connect 5 0 11 0;
#X connect 6 0 12 0;
#X connect 7 0 9 0;
#X connect 8 0 11 1;
#X connect 9 0 10 0;
#X connect 10 0 11 0;
#X connect 11 0 6 0;
#X connect 13 0 14 0;
#X connect 13 0 8 0;
#X connect 14 0 13 1;
#X connect 15 0 13 0;
#X connect 16 0 15 0;
#X connect 17 0 16 0;
#X connect 18 0 14 0;
#X connect 19 0 21 0;
#X connect 20 0 16 1;
#X connect 21 0 20 0;
#X connect 22 0 14 0;
#X connect 23 0 24 0;
#X connect 24 0 19 0;
#X connect 25 0 23 0;
#X connect 27 0 26 0;
#X connect 28 0 26 0;
#X restore 282 296 pd CorrespondingVideo;
#X connect 1 0 3 0;
#X connect 1 0 6 0;
#X connect 2 0 1 0;
#X connect 6 1 18 1;
#X connect 8 0 9 0;
#X connect 8 0 17 0;
#X connect 9 0 6 1;
#X connect 11 0 12 0;
#X connect 11 1 10 1;
#X connect 11 1 10 0;
#X connect 13 0 11 0;
#X connect 14 0 13 0;
#X connect 14 0 15 0;
#X connect 17 0 14 0;
#X connect 17 0 16 0;
#X connect 18 1 11 1;
#X connect 19 0 18 0;
#X connect 20 0 19 0;
#X connect 20 0 21 0;
