#N canvas 132 136 450 300 10;
#X obj 93 62 inlet;
#X obj 273 62 inlet;
#X text 270 41 Ycoord;
#X text 90 41 Xcoord;
#X obj 78 245 outlet;
#X obj 258 245 outlet;
#X text 73 261 theta;
#X text 262 260 magnitude;
#X obj 185 153 *;
#X obj 231 153 *;
#X obj 203 175 +;
#X obj 203 199 sqrt;
#X obj 109 158 tan;
#X obj 109 132 /;
#X obj 223 132 t f f;
#X obj 183 132 t f f;
#X connect 0 0 13 0;
#X connect 0 0 15 0;
#X connect 1 0 13 1;
#X connect 1 0 14 0;
#X connect 8 0 10 0;
#X connect 9 0 10 1;
#X connect 10 0 11 0;
#X connect 11 0 5 0;
#X connect 12 0 4 0;
#X connect 13 0 12 0;
#X connect 14 0 9 0;
#X connect 14 1 9 1;
#X connect 15 0 8 0;
#X connect 15 1 8 1;
