#N canvas 48 295 656 425 12;
#X obj 77 53 gemwin;
#X obj 74 95 gemhead;
#X obj 74 150 pix_image;
#X obj 74 170 pix_texture;
#X obj 74 225 translateXYZ;
#X obj 74 250 rotateXYZ;
#X obj 160 117 bng 15 250 50 0 empty empty empty 0 -6 0 8 -262144 -1
-1;
#N canvas 0 22 450 300 openpanel 0;
#X obj 114 62 inlet;
#X obj 121 254 outlet;
#X obj 114 125 openpanel;
#X msg 114 162 set open \$1;
#X obj 114 199 t b a;
#X connect 0 0 2 0;
#X connect 2 0 3 0;
#X connect 3 0 4 0;
#X connect 4 0 1 0;
#X connect 4 1 1 0;
#X restore 160 134 pd openpanel;
#X msg 160 156 open /home/deifius/inasra/xwordspine.json.png;
#X obj 149 70 pack f f f;
#X obj 232 70 bang;
#X floatatom 146 40 5 0 0 0 - - -;
#X floatatom 186 41 5 0 0 0 - - -;
#X floatatom 228 39 5 0 0 0 - - -;
#X obj 74 275 rectangle 4 4;
#X obj 252 237 gemhead;
#X obj 312 182 pix_image;
#X obj 312 202 pix_texture;
#X obj 312 257 translateXYZ;
#X obj 312 282 rotateXYZ;
#X obj 252 264 alpha 0;
#X obj 312 307 rectangle 4 4;
#X obj 479 218 ggee/shell;
#X obj 473 289 print;
#X obj 530 38 loadbang;
#X msg 532 71 1;
#X obj 539 97 tgl 15 0 empty empty empty 17 7 0 10 -262144 -1 -1 1
1;
#X msg 479 189 bash randomNextMove.sh;
#X msg 23 42 destroy;
#X obj 250 213 tgl 15 0 empty empty empty 17 7 0 10 -262144 -1 -1 1
1;
#X obj 50 97 tgl 15 0 empty empty empty 17 7 0 10 -262144 -1 -1 1 1
;
#X obj 534 118 metro 500;
#X msg 509 162 bash SomeSortOfOrderedNextMove.sh;
#X text 95 337 now we just pick the clue \, overwrite xwordspine and
loop;
#X obj 313 229 colorRGB 1 1 1;
#X obj 75 197 colorRGB 0 1 1;
#X obj 75 122 alpha 0;
#X msg 149 94 color 0.94 1 1;
#X msg 87 17 dimen 700 700 \, title what_is_inasra \, create \, 1;
#X connect 1 0 36 0;
#X connect 2 0 3 0;
#X connect 3 0 35 0;
#X connect 4 0 5 0;
#X connect 5 0 14 0;
#X connect 6 0 7 0;
#X connect 7 0 8 0;
#X connect 8 0 2 0;
#X connect 9 0 37 0;
#X connect 10 0 9 0;
#X connect 11 0 9 0;
#X connect 12 0 9 1;
#X connect 12 0 10 0;
#X connect 13 0 9 2;
#X connect 13 0 10 0;
#X connect 15 0 20 0;
#X connect 16 0 17 0;
#X connect 17 0 34 0;
#X connect 18 0 19 0;
#X connect 19 0 21 0;
#X connect 20 0 16 0;
#X connect 22 0 16 0;
#X connect 24 0 8 0;
#X connect 24 0 25 0;
#X connect 24 0 38 0;
#X connect 24 0 37 0;
#X connect 25 0 26 0;
#X connect 26 0 31 0;
#X connect 27 0 22 0;
#X connect 28 0 0 0;
#X connect 29 0 15 0;
#X connect 30 0 1 0;
#X connect 31 0 27 0;
#X connect 34 0 18 0;
#X connect 35 0 4 0;
#X connect 36 0 2 0;
#X connect 37 0 0 0;
#X connect 38 0 0 0;
