#N canvas 0 22 458 308 10;
#X obj 212 239 outlet;
#X obj 146 22 inlet;
#X obj 239 31 inlet;
#X obj 325 28 inlet;
#X obj 245 96 + 1;
#X obj 208 117 f 0;
#X msg 253 142 0;
#X obj 253 120 sel \$1;
#X text 224 16 argument;
#X text 311 13 increment value;
#X obj 139 74 route bang;
#X text 153 7 bang: ++;
#X text 128 42 # sets counter;
#X connect 1 0 10 0;
#X connect 2 0 7 1;
#X connect 3 0 4 1;
#X connect 4 0 7 0;
#X connect 5 0 0 0;
#X connect 5 0 4 0;
#X connect 6 0 5 1;
#X connect 7 0 6 0;
#X connect 7 1 5 1;
#X connect 10 0 5 0;
#X connect 10 1 5 1;
