#N canvas 0 0 719 391 10;
#X obj 197 172 line;
#X obj 193 95 t b b;
#X obj 269 61 vsl 15 128 0 1 0 0 empty empty empty 0 -8 0 10 -262144
-1 -1 0 1;
#X obj 198 200 *;
#X obj 200 223 *;
#X msg 232 127 0;
#X obj 335 224 +;
#X obj 327 135 pack;
#X obj 385 97 int;
#X obj 367 41 inlet;
#X obj 286 244 outlet;
#X obj 389 128 -;
#X obj 317 101 undercurve;
#X obj 369 61 t b f f b;
#X floatatom 279 207 5 0 0 0 - - -;
#X obj 312 47 bang;
#X obj 454 34 inlet;
#X obj 468 71 / 2;
#X obj 223 67 bng 15 250 50 0 empty empty empty 0 -6 0 10 -262144 -1
-1;
#X obj 21 183 delay 500;
#X floatatom 190 264 5 0 0 0 - - -;
#X obj 47 120 delay 1000;
#X msg 91 174 0 1000;
#X msg 154 130 1 1000;
#X obj 303 163 expr $f1*$f2/20.01;
#X connect 0 0 3 1;
#X connect 0 0 3 0;
#X connect 1 0 23 0;
#X connect 1 0 21 0;
#X connect 1 1 5 0;
#X connect 2 0 12 0;
#X connect 3 0 4 1;
#X connect 3 0 4 0;
#X connect 4 0 2 0;
#X connect 4 0 20 0;
#X connect 5 0 0 0;
#X connect 6 0 10 0;
#X connect 7 0 24 0;
#X connect 8 0 11 1;
#X connect 8 0 6 1;
#X connect 9 0 13 0;
#X connect 11 0 7 1;
#X connect 12 0 7 0;
#X connect 12 0 14 0;
#X connect 13 0 18 0;
#X connect 13 1 11 0;
#X connect 13 2 8 1;
#X connect 13 3 8 0;
#X connect 13 3 15 0;
#X connect 15 0 12 0;
#X connect 16 0 17 0;
#X connect 18 0 1 0;
#X connect 21 0 22 0;
#X connect 21 0 19 0;
#X connect 22 0 0 0;
#X connect 23 0 0 0;
#X connect 24 0 6 0;
