#N canvas 415 228 606 508 10;
#X obj 332 164 MouseState;
#X floatatom 299 203 5 0 0 0 - - -;
#X msg 328 121 poll;
#X floatatom 384 235 5 0 0 0 - - -;
#X floatatom 397 260 5 0 0 0 - - -;
#X floatatom 302 272 5 0 0 0 - - -;
#X floatatom 328 297 5 0 0 0 - - -;
#X obj 422 386 vline~;
#X obj 430 415 *~;
#X obj 381 462 dac~;
#X obj 374 312 sel 1;
#X msg 404 354 0.4 40 \, 0 600 10;
#N canvas 1 77 1009 687 nakedfield 0;
#X restore 500 206 pd nakedfield;
#X msg 382 117 nopoll;
#X obj 242 414 plugin~ decimator;
#X msg 265 378 info;
#X obj 245 449 print;
#X msg 250 345 control Sample \$1;
#X obj 361 382 noise~;
#X obj 275 179 spigot;
#X msg 271 141 0;
#X msg 300 149 1;
#X obj 18 233 gemwin;
#X obj 28 76 vradio 15 1 0 3 empty empty empty 0 -8 0 10 -262144 -1
-1 0;
#X floatatom 28 127 5 0 0 0 - - -;
#X msg 28 148 reset \, fullscreen \$1 \, create \, 1;
#X text 50 73 deactivate fullscreen;
#X text 49 90 fullscreen on screen 1;
#X text 49 106 fullscreen on screen 2;
#X msg 41 203 0 \, destroy;
#N canvas 105 77 450 300 esc 0;
#X obj 65 20 gemkeyboard;
#X obj 65 167 outlet;
#X obj 89 71 keyname;
#X obj 128 96 sel Escape;
#X obj 65 41 sel 53;
#X obj 189 47 sel Escape;
#X obj 150 22 gemkeyname;
#X connect 0 0 4 0;
#X connect 2 1 3 0;
#X connect 3 0 1 0;
#X connect 4 0 1 0;
#X connect 5 0 1 0;
#X connect 6 1 5 0;
#X restore 41 181 pd esc;
#X obj 186 206 gemmouse;
#X obj 303 321 * 6;
#X obj 448 314 osc~ 440;
#X obj 223 13 sigmund~;
#N canvas 527 464 450 300 viz 1;
#X restore 112 309 pd viz;
#X connect 0 0 19 0;
#X connect 0 1 5 0;
#X connect 0 2 6 0;
#X connect 0 3 3 0;
#X connect 0 4 4 0;
#X connect 1 0 10 0;
#X connect 2 0 0 0;
#X connect 2 0 21 0;
#X connect 6 0 32 0;
#X connect 7 0 8 0;
#X connect 8 0 14 1;
#X connect 10 0 11 0;
#X connect 11 0 7 0;
#X connect 13 0 0 0;
#X connect 13 0 20 0;
#X connect 14 0 16 0;
#X connect 14 1 9 1;
#X connect 15 0 14 0;
#X connect 17 0 14 0;
#X connect 18 0 8 1;
#X connect 19 0 1 0;
#X connect 20 0 19 1;
#X connect 21 0 19 1;
#X connect 23 0 24 0;
#X connect 24 0 25 0;
#X connect 25 0 22 0;
#X connect 29 0 22 0;
#X connect 30 0 29 0;
#X connect 31 0 5 0;
#X connect 31 1 6 0;
#X connect 31 2 1 0;
#X connect 32 0 17 0;
#X connect 33 0 8 1;
