#N canvas 252 206 606 508 10;
#X obj 332 164 MouseState;
#X floatatom 299 203 5 0 0 0 - - -;
#X msg 328 121 poll;
#X floatatom 384 235 5 0 0 0 - - -;
#X floatatom 397 260 5 0 0 0 - - -;
#X floatatom 302 272 5 0 0 0 - - -;
#X floatatom 328 297 5 0 0 0 - - -;
#X obj 422 386 vline~;
#X obj 430 415 *~;
#X obj 381 462 dac~;
#X obj 374 312 sel 1;
#X msg 382 117 nopoll;
#X obj 242 414 plugin~ decimator;
#X msg 265 378 info;
#X obj 245 449 print;
#X msg 250 345 control Sample \$1;
#X obj 361 382 noise~;
#X obj 275 179 spigot;
#X msg 271 141 0;
#X msg 300 149 1;
#X obj 14 185 gemwin;
#X obj 24 28 vradio 15 1 0 3 empty empty empty 0 -8 0 10 -262144 -1
-1 1;
#X floatatom 24 79 5 0 0 0 - - -;
#X text 46 25 deactivate fullscreen;
#X text 45 42 fullscreen on screen 1;
#X text 45 58 fullscreen on screen 2;
#X msg 37 155 0 \, destroy;
#N canvas 105 77 450 300 esc 0;
#X obj 65 20 gemkeyboard;
#X obj 65 167 outlet;
#X obj 89 71 keyname;
#X obj 128 96 sel Escape;
#X obj 65 41 sel 53;
#X obj 189 47 sel Escape;
#X obj 150 22 gemkeyname;
#X connect 0 0 4 0;
#X connect 2 1 3 0;
#X connect 3 0 1 0;
#X connect 4 0 1 0;
#X connect 5 0 1 0;
#X connect 6 1 5 0;
#X restore 37 133 pd esc;
#X obj 232 204 gemmouse;
#X obj 303 321 * 6;
#X obj 448 314 osc~ 440;
#X obj 223 13 sigmund~;
#N canvas 376 278 571 383 viz 0;
#X obj 341 81 vsl 15 128 0 1 0 0 empty empty empty 0 -9 0 10 -262144
-1 -1 102 1;
#X obj 447 207 snapshot~;
#X obj 469 131 tgl 15 0 empty empty empty 17 7 0 10 -262144 -1 -1 1
1;
#N canvas 528 182 450 458 ping 0;
#X obj 240 281 circle;
#X obj 117 163 alpha 1;
#X obj 116 116 gemhead;
#X obj 132 142 color;
#X obj 216 186 expr 5*($f1+.05);
#X obj 243 46 inlet;
#X obj 137 219 pix_texture;
#X obj 137 199 pix_image;
#X msg 72 252 open ripple.jpg;
#X obj 73 232 loadbang;
#X obj 282 258 rotateXYZ;
#X obj 287 219 * -360;
#X obj 333 -9 inlet;
#X obj 277 76 % 128;
#X obj 317 81 % 256;
#X obj 274 102 / 128;
#X obj 316 101 / 256;
#X obj 357 80 % 1024;
#X obj 356 100 / 1024;
#X obj 187 67 - 1;
#X obj 187 86 abs;
#X obj 192 111 *;
#X obj 278 134 pack f f f f;
#X msg 295 154 \$2 \$3 \$4 \$1;
#X obj 222 354 print;
#X obj 315 28 bang;
#X obj 297 53 random 2048;
#X connect 1 0 7 0;
#X connect 2 0 3 0;
#X connect 3 0 1 0;
#X connect 4 0 0 1;
#X connect 5 0 4 0;
#X connect 5 0 11 0;
#X connect 5 0 19 0;
#X connect 6 0 10 0;
#X connect 7 0 6 0;
#X connect 8 0 7 0;
#X connect 9 0 8 0;
#X connect 10 0 0 0;
#X connect 11 0 10 3;
#X connect 12 0 25 0;
#X connect 13 0 15 0;
#X connect 14 0 16 0;
#X connect 15 0 22 1;
#X connect 16 0 22 2;
#X connect 17 0 18 0;
#X connect 18 0 22 3;
#X connect 19 0 20 0;
#X connect 20 0 21 1;
#X connect 20 0 21 0;
#X connect 21 0 22 0;
#X connect 22 0 23 0;
#X connect 23 0 3 1;
#X connect 25 0 26 0;
#X connect 26 0 13 0;
#X connect 26 0 14 0;
#X connect 26 0 17 0;
#X restore 207 273 pd ping;
#X floatatom 536 138 5 0 0 0 - - -;
#N canvas 1 77 450 300 ping 0;
#X obj 133 267 circle;
#X obj 117 173 alpha 1;
#X obj 116 126 gemhead;
#X obj 132 152 color;
#X obj 190 163 expr 5*($f1+.05);
#X obj 243 46 inlet;
#X obj 165 53 - 1;
#X obj 165 72 abs;
#X obj 170 97 *;
#X obj 137 219 pix_texture;
#X obj 137 199 pix_image;
#X msg 316 186 open ripple.jpg;
#X obj 317 166 loadbang;
#X obj 287 219 * 360;
#X obj 282 258 rotateXYZ;
#X obj 359 -22 inlet;
#X obj 303 63 % 128;
#X obj 343 68 % 256;
#X obj 300 89 / 128;
#X obj 342 88 / 256;
#X obj 383 67 % 1024;
#X obj 382 87 / 1024;
#X obj 304 121 pack f f f f;
#X obj 341 15 bang;
#X obj 323 40 random 2048;
#X msg 321 141 \$3 \$2 \$4 \$1;
#X connect 1 0 10 0;
#X connect 2 0 3 0;
#X connect 3 0 1 0;
#X connect 4 0 0 1;
#X connect 5 0 4 0;
#X connect 5 0 6 0;
#X connect 5 0 13 0;
#X connect 6 0 7 0;
#X connect 7 0 8 1;
#X connect 7 0 8 0;
#X connect 8 0 22 0;
#X connect 9 0 14 0;
#X connect 10 0 9 0;
#X connect 11 0 10 0;
#X connect 12 0 11 0;
#X connect 13 0 14 3;
#X connect 14 0 0 0;
#X connect 15 0 23 0;
#X connect 16 0 18 0;
#X connect 17 0 19 0;
#X connect 18 0 22 1;
#X connect 19 0 22 2;
#X connect 20 0 21 0;
#X connect 21 0 22 3;
#X connect 22 0 25 0;
#X connect 23 0 24 0;
#X connect 24 0 16 0;
#X connect 24 0 17 0;
#X connect 24 0 20 0;
#X connect 25 0 3 1;
#X restore 281 353 pd ping;
#N canvas 537 351 450 300 ping 0;
#X obj 192 277 circle;
#X obj 117 173 alpha 1;
#X obj 116 126 gemhead;
#X obj 132 152 color;
#X obj 190 163 expr 5*($f1+.05);
#X obj 243 46 inlet;
#X obj 177 57 - 1;
#X obj 177 76 abs;
#X obj 182 101 *;
#X obj 139 246 pix_texture;
#X obj 139 226 pix_image;
#X msg 325 201 open ripple.jpg;
#X obj 326 181 loadbang;
#X obj 245 197 * 360;
#X obj 250 242 rotateXYZ;
#X obj 346 -28 inlet;
#X obj 290 57 % 128;
#X obj 330 62 % 256;
#X obj 287 83 / 128;
#X obj 329 82 / 256;
#X obj 370 61 % 1024;
#X obj 369 81 / 1024;
#X obj 291 115 pack f f f f;
#X obj 328 9 bang;
#X obj 310 34 random 2048;
#X msg 310 135 \$4 \$2 \$3 \$1;
#X connect 1 0 10 0;
#X connect 2 0 3 0;
#X connect 3 0 1 0;
#X connect 4 0 0 1;
#X connect 5 0 4 0;
#X connect 5 0 6 0;
#X connect 5 0 13 0;
#X connect 6 0 7 0;
#X connect 7 0 8 1;
#X connect 7 0 8 0;
#X connect 8 0 22 0;
#X connect 9 0 14 0;
#X connect 10 0 9 0;
#X connect 11 0 10 0;
#X connect 12 0 11 0;
#X connect 13 0 14 3;
#X connect 14 0 0 0;
#X connect 15 0 23 0;
#X connect 16 0 18 0;
#X connect 17 0 19 0;
#X connect 18 0 22 1;
#X connect 19 0 22 2;
#X connect 20 0 21 0;
#X connect 21 0 22 3;
#X connect 22 0 25 0;
#X connect 23 0 24 0;
#X connect 24 0 16 0;
#X connect 24 0 17 0;
#X connect 24 0 20 0;
#X connect 25 0 3 1;
#X restore 232 315 pd ping;
#X obj 469 179 metro 43;
#X obj 452 263 pipe 500;
#X obj 442 235 pipe 500;
#X obj 67 116 gemhead;
#X obj 144 109 light;
#X obj 145 67 gemhead;
#X msg 232 46 \; pd dsp 1 \;;
#X obj 232 24 loadbang;
#X obj 466 90 loadbang;
#X msg 469 110 1;
#X text 65 242 here's what i'm talking about:;
#X obj 371 20 inlet;
#X obj 411 22 inlet;
#X obj 114 155 rotateXYZ;
#X obj 126 203 pix_texture;
#X obj 234 133 loadbang;
#X msg 233 153 open marble.jpg;
#X obj 122 183 pix_image;
#X obj 460 34 inlet;
#X obj 120 232 sphere 1 34;
#X obj 144 87 translateXYZ 2 2 4;
#X obj 391 155 phasor~ 0;
#X msg 433 103 0;
#X obj 422 72 bang;
#X obj 470 63 del 7000;
#X msg 383 106 0.126;
#X connect 1 0 0 0;
#X connect 1 0 9 0;
#X connect 1 0 3 0;
#X connect 2 0 7 0;
#X connect 4 0 7 1;
#X connect 7 0 1 0;
#X connect 8 0 5 0;
#X connect 9 0 8 0;
#X connect 9 0 6 0;
#X connect 10 0 20 0;
#X connect 12 0 27 0;
#X connect 14 0 13 0;
#X connect 15 0 16 0;
#X connect 16 0 2 0;
#X connect 18 0 20 1;
#X connect 19 0 20 2;
#X connect 20 0 24 0;
#X connect 21 0 26 0;
#X connect 22 0 23 0;
#X connect 23 0 24 0;
#X connect 24 0 21 0;
#X connect 25 0 30 0;
#X connect 25 0 3 1;
#X connect 25 0 6 1;
#X connect 25 0 5 1;
#X connect 27 0 11 0;
#X connect 28 0 1 0;
#X connect 29 0 28 0;
#X connect 30 0 32 0;
#X connect 30 0 31 0;
#X connect 31 0 29 0;
#X connect 32 0 28 0;
#X connect 32 0 28 1;
#X restore 199 289 pd viz;
#X msg 24 100 reset \, fullscreen \$1 \, create \, 1 \, lighting 1
;
#X msg 451 345 0.4 40 \, 0 3500 10 \,;
#X connect 0 0 17 0;
#X connect 0 1 5 0;
#X connect 0 2 6 0;
#X connect 0 3 3 0;
#X connect 0 4 4 0;
#X connect 1 0 10 0;
#X connect 2 0 0 0;
#X connect 2 0 19 0;
#X connect 6 0 29 0;
#X connect 7 0 8 0;
#X connect 8 0 12 1;
#X connect 10 0 34 0;
#X connect 11 0 0 0;
#X connect 11 0 18 0;
#X connect 12 0 14 0;
#X connect 12 1 9 1;
#X connect 13 0 12 0;
#X connect 15 0 12 0;
#X connect 16 0 8 1;
#X connect 17 0 1 0;
#X connect 18 0 17 1;
#X connect 19 0 17 1;
#X connect 21 0 22 0;
#X connect 22 0 33 0;
#X connect 26 0 20 0;
#X connect 27 0 26 0;
#X connect 28 0 5 0;
#X connect 28 0 32 0;
#X connect 28 1 6 0;
#X connect 28 1 32 1;
#X connect 28 2 1 0;
#X connect 28 2 32 2;
#X connect 29 0 15 0;
#X connect 30 0 8 1;
#X connect 33 0 20 0;
#X connect 34 0 7 0;
