#N canvas 717 84 458 413 10;
#X obj 346 38 table lef;
#X obj 348 60 table rig;
#X msg 283 215 \; lef resize \$1;
#X obj 283 176 + 48000;
#X obj 241 149 metro 1000;
#X obj 241 178 int 0;
#X obj 224 30 tgl 35 0 empty empty record 0 -5 0 10 -261234 -1 -1 0
1;
#X obj 78 32 adc~;
#X obj 76 151 tabwrite~ rig;
#X obj 63 125 tabwrite~ lef;
#X obj 43 321 dac~;
#X obj 54 249 tabread4~ rig;
#X obj 217 68 t f f;
#X obj 174 115 sel 0 1;
#X obj 210 176 bng 15 250 50 0 empty empty empty 17 7 0 10 -262144
-1 -1;
#X msg 168 143 stop;
#X msg 240 251 \; rig resize \$1;
#X msg 54 207 \$1 1000;
#X msg 227 215 0;
#X obj 109 184 * 0.5;
#X obj 194 89 pipe 1000;
#X obj 84 278 tabread4~ lef;
#X obj 54 232 vline~;
#X connect 3 0 5 1;
#X connect 3 0 2 0;
#X connect 3 0 16 0;
#X connect 3 0 19 0;
#X connect 4 0 5 0;
#X connect 5 0 3 0;
#X connect 6 0 12 0;
#X connect 7 0 9 0;
#X connect 7 1 8 0;
#X connect 11 0 10 0;
#X connect 11 0 10 1;
#X connect 11 0 9 0;
#X connect 12 0 20 0;
#X connect 12 1 4 0;
#X connect 13 0 15 0;
#X connect 13 0 18 0;
#X connect 13 1 14 0;
#X connect 14 0 8 0;
#X connect 14 0 9 0;
#X connect 15 0 9 0;
#X connect 15 0 8 0;
#X connect 17 0 22 0;
#X connect 18 0 5 1;
#X connect 18 0 17 0;
#X connect 19 0 17 0;
#X connect 20 0 13 0;
#X connect 21 0 10 1;
#X connect 21 0 10 0;
#X connect 22 0 11 0;
#X connect 22 0 21 0;
