#N canvas 169 90 1112 709 10;
#X obj 123 281 int;
#X obj 292 122 beat;
#X msg 30 204 1;
#X msg 61 200 5;
#X msg 58 233 3;
#X msg 58 176 8;
#X msg 79 152 10;
#X msg 92 189 11;
#X msg 119 177 2;
#X msg 145 208 4;
#X obj 386 583 makenote;
#X obj 65 82 stripnote;
#X obj 13 119 sel 49 38 43 45 48 51 49 46 44 42 36;
#X floatatom 361 229 5 0 0 0 - - -;
#X obj 42 308 sel 1 3 5 8 10 11 2 4;
#X obj 580 300 unpack f f f f f f;
#X msg 66 357 40;
#X msg 80 378 55;
#X msg 98 403 47;
#X msg 103 356 59;
#X msg 109 380 70;
#X msg 137 406;
#X msg 145 358 52;
#X msg 157 382 59;
#X msg 176 406 71;
#X msg 185 364;
#X msg 597 334 set \$1;
#X msg 621 355 set \$1;
#X msg 631 366 set \$1;
#X msg 641 375 set \$1;
#X msg 651 385 set \$1;
#X obj 701 350 + 12;
#X obj 713 359 + 12;
#X obj 723 369 + 12;
#X msg 707 387 set \$1;
#X msg 717 397 set \$1;
#X msg 727 407 set \$1;
#X obj 31 410 int;
#X obj 455 512 pipe 500;
#X obj 475 596 makenote 65;
#X obj 485 542 + 12;
#X obj 589 530 pipe 500;
#X obj 563 597 makenote 65;
#N canvas 829 53 450 300 chordname 0;
#X symbolatom 101 103 45 0 0 0 - - -;
#X obj 84 72 list split 2;
#X obj 120 51 l;
#X obj 79 23 inlet;
#X connect 1 2 0 0;
#X connect 2 0 1 0;
#X connect 3 0 2 0;
#X coords 0 -1 1 1 280 25 2 100 100;
#X restore 512 202 pd chordname;
#X obj 319 254 int;
#X obj 226 251 bng 15 250 50 0 empty empty empty 17 7 0 10 -262144
-1 -1;
#X obj 534 546 sel 0;
#X obj 585 557 + 0;
#X msg 356 200 reset;
#X floatatom 233 179 5 0 0 0 - - -;
#X obj 416 550 * 4;
#X obj 387 33 notein 1;
#X obj 491 622 noteout 5;
#X obj 579 623 noteout 4;
#X obj 419 621 noteout 3;
#N canvas 829 53 450 300 pow2er 0;
#X obj 116 111 inlet;
#X obj 134 234 outlet;
#X obj 179 115 random 8;
#X obj 182 158 pow 2;
#X obj 177 137 swap 2 2;
#X obj 181 185 / 4;
#X obj 158 209 *;
#X obj 179 91 inlet;
#X connect 0 0 6 0;
#X connect 2 0 4 0;
#X connect 3 0 5 0;
#X connect 4 0 3 0;
#X connect 4 1 3 1;
#X connect 5 0 6 1;
#X connect 6 0 1 0;
#X connect 7 0 2 0;
#X restore 600 498 pd pow2er;
#N canvas 829 53 450 300 pow2er 0;
#X obj 116 111 inlet;
#X obj 134 234 outlet;
#X obj 179 115 random 8;
#X obj 182 158 pow 2;
#X obj 177 137 swap 2 2;
#X obj 181 185 / 4;
#X obj 158 209 *;
#X obj 179 91 inlet;
#X connect 0 0 6 0;
#X connect 2 0 4 0;
#X connect 3 0 5 0;
#X connect 4 0 3 0;
#X connect 4 1 3 1;
#X connect 5 0 6 1;
#X connect 6 0 1 0;
#X connect 7 0 2 0;
#X restore 503 483 pd pow2er;
#N canvas 1028 156 178 214 RRxing 0;
#X obj -36 21 inlet;
#X obj -41 174 outlet;
#X obj 28 169 outlet;
#X obj -40 69 tgl 35 0 empty empty empty 17 7 0 10 -1 -258113 -258113
0 1;
#X obj -4 69 tgl 35 0 empty empty empty 17 7 0 10 -1 -258113 -258113
1 1;
#X obj 5 134 sel 0 1;
#X obj -6 48 + 1;
#X obj 25 49 % 2;
#X obj -44 45 int 1;
#X obj -23 109 - 1;
#X obj 2 109 abs;
#X connect 0 0 8 0;
#X connect 3 0 9 0;
#X connect 5 0 1 0;
#X connect 5 1 2 0;
#X connect 6 0 7 0;
#X connect 7 0 8 1;
#X connect 8 0 6 0;
#X connect 8 0 3 0;
#X connect 9 0 10 0;
#X connect 10 0 4 0;
#X connect 10 0 5 0;
#X restore 608 462 pd RRxing;
#X text 612 542 a more sophisticated sywstem of recollection is required
with tuneable feedback;
#N canvas 700 84 578 338 eventmemory 0;
#X obj 181 -108 table velocity;
#X obj 180 -78 table duration;
#X obj 225 16 int;
#X obj 264 11 + 1;
#X obj 220 -32 loadbang;
#X msg 221 -9 1;
#X obj 187 -25 bang;
#X obj 188 -49 bng 15 250 50 0 empty empty empty 17 7 0 10 -262144
-1 -1;
#X obj 125 203 tabwrite velocity;
#X obj 243 203 tabwrite duration;
#X obj 23 -9 spigot;
#X obj 61 -80 t f f;
#X obj 82 -41 sel 0;
#N canvas 1 84 450 300 time.elapsed 0;
#X obj 211 122 % 2;
#X obj 164 205 timer;
#X obj 122 203 timer;
#X obj 178 102 int;
#X obj 208 88 + 1;
#X obj 157 125 sel 0 1;
#X obj 137 262 outlet;
#X obj 118 45 inlet;
#X obj 134 80 bang;
#X connect 0 0 3 1;
#X connect 1 0 6 0;
#X connect 2 0 6 0;
#X connect 3 0 4 0;
#X connect 3 0 5 0;
#X connect 4 0 0 0;
#X connect 5 0 1 0;
#X connect 5 0 2 1;
#X connect 5 1 1 1;
#X connect 5 1 2 0;
#X connect 7 0 8 0;
#X connect 8 0 3 0;
#X restore 264 180 pd time.elapsed;
#X obj 101 4 t f b b;
#X obj 259 51 + -1;
#X obj 227 167 + 0;
#X obj 83 176 + 0;
#X obj 181 -136 table pitch;
#X obj 282 -108 table dynamic;
#X obj 280 -78 table length;
#X obj 281 -136 table solfege;
#X msg 305 12 \; pitch resize \$1 \; solfege resize \$1 \; velocity
resize \$1 \; dynamic resize \$1 \; duration resize \$1 \; length resize
\$1;
#X obj 21 203 tabwrite pitch;
#X text 181 -153 1st order;
#X text 280 -154 2nd order;
#X obj 77 -170 inlet;
#X obj 40 -228 inlet;
#X obj 250 298 tabwrite length;
#X obj 267 240 r beatduration;
#X obj 251 269 /;
#X text 185 -221 tonic determinator? Whats it called?;
#X obj 21 293 tabwrite solfege;
#N canvas 773 105 534 658 tonic.weights 0;
#X obj 165 25 inlet;
#X obj 217 38 table \$0-weights;
#X obj 70 76 tabread \$0-weights;
#X obj 164 47 t f f;
#X obj 83 425 tabwrite \$0-weights;
#X obj 74 135 + 1;
#X obj 105 200 until;
#X msg 105 176 127;
#X obj 134 251 sel;
#X obj 116 307 tabread \$0-weights;
#X obj 97 331 moses 0;
#X obj 100 283 trigger f f;
#X obj 114 224 int 0;
#X obj 153 223 + 1;
#X obj 181 222 % 127;
#X obj 116 144 bang;
#X obj 97 102 moses 32;
#X obj 98 503 until;
#X msg 70 502 127;
#X obj 36 527 int 0;
#X obj 75 526 + 1;
#X obj 103 525 % 127;
#X msg 91 545 0 \$1;
#X obj 51 506 bng 15 250 50 0 empty empty empty 17 7 0 10 -262144 -1
-1;
#X obj 59 553 unpack;
#N canvas 269 98 1082 635 tonal.guess.sequence 0;
#X obj 143 283 bag;
#X obj 133 115 until;
#X msg 133 91 127;
#X obj 166 164 tabread \$0-weights;
#X obj 132 142 int 0;
#X obj 171 141 + 1;
#X obj 199 140 % 127;
#X obj 167 216 int;
#X obj 129 159 t f f;
#X obj 143 240 pack;
#X msg 85 142 flush;
#X obj 135 310 makenote 45 44 125;
#N canvas 829 53 450 300 chordname 0;
#X symbolatom 101 103 45 0 0 0 - - -;
#X obj 84 72 list split 2;
#X obj 120 51 l;
#X obj 79 23 inlet;
#X connect 1 2 0 0;
#X connect 2 0 1 0;
#X connect 3 0 2 0;
#X coords 0 -1 1 1 280 25 2 100 100;
#X restore 55 365 pd chordname;
#X obj 144 330 chord;
#X obj 125 39 r beatduration;
#X obj 116 62 t b b;
#X obj 172 194 * 0.5;
#X obj 465 283 bag;
#X obj 455 115 until;
#X msg 455 91 127;
#X obj 488 164 tabread \$0-weights;
#X obj 454 142 int 0;
#X obj 493 141 + 1;
#X obj 521 140 % 127;
#X obj 489 216 int;
#X obj 451 159 t f f;
#X obj 465 240 pack;
#X msg 407 142 flush;
#X obj 457 310 makenote 45 44 125;
#N canvas 829 53 450 300 chordname 0;
#X symbolatom 101 103 45 0 0 0 - - -;
#X obj 84 72 list split 2;
#X obj 120 51 l;
#X obj 79 23 inlet;
#X connect 1 2 0 0;
#X connect 2 0 1 0;
#X connect 3 0 2 0;
#X coords 0 -1 1 1 280 25 2 100 100;
#X restore 377 365 pd chordname;
#X obj 466 330 chord;
#X obj 447 39 r beatduration;
#X obj 438 62 t b b;
#X obj 494 194 * 0.25;
#X obj 767 278 bag;
#X obj 757 110 until;
#X msg 757 86 127;
#X obj 790 159 tabread \$0-weights;
#X obj 756 137 int 0;
#X obj 795 136 + 1;
#X obj 823 135 % 127;
#X obj 791 211 int;
#X obj 753 154 t f f;
#X obj 767 235 pack;
#X msg 709 137 flush;
#X obj 759 305 makenote 45 44 125;
#N canvas 829 53 450 300 chordname 0;
#X symbolatom 101 103 45 0 0 0 - - -;
#X obj 84 72 list split 2;
#X obj 120 51 l;
#X obj 79 23 inlet;
#X connect 1 2 0 0;
#X connect 2 0 1 0;
#X connect 3 0 2 0;
#X coords 0 -1 1 1 280 25 2 100 100;
#X restore 820 381 pd chordname;
#X obj 768 325 chord;
#X obj 749 34 r beatduration;
#X obj 740 57 t b b;
#X obj 796 189 * 0.125;
#X obj 723 562 print;
#X obj 723 507 shell;
#X msg 678 465 echo "\$1 \$2 \$3"|grep 'dom';
#X msg 717 425 face pants duminant hard nice 7th;
#X obj 799 539 bng 45 250 50 0 empty empty empty 17 7 0 10 -1 -258113
-258113;
#X connect 0 0 11 0;
#X connect 1 0 4 0;
#X connect 2 0 1 0;
#X connect 3 0 16 0;
#X connect 4 0 5 0;
#X connect 4 0 8 0;
#X connect 5 0 6 0;
#X connect 6 0 4 1;
#X connect 7 0 9 1;
#X connect 8 0 9 0;
#X connect 8 1 3 0;
#X connect 9 0 0 0;
#X connect 10 0 0 0;
#X connect 11 0 13 0;
#X connect 11 1 13 1;
#X connect 13 2 12 0;
#X connect 14 0 15 0;
#X connect 15 0 10 0;
#X connect 15 1 2 0;
#X connect 16 0 7 0;
#X connect 17 0 28 0;
#X connect 18 0 21 0;
#X connect 19 0 18 0;
#X connect 20 0 33 0;
#X connect 21 0 22 0;
#X connect 21 0 25 0;
#X connect 22 0 23 0;
#X connect 23 0 21 1;
#X connect 24 0 26 1;
#X connect 25 0 26 0;
#X connect 25 1 20 0;
#X connect 26 0 17 0;
#X connect 27 0 17 0;
#X connect 28 0 30 0;
#X connect 28 1 30 1;
#X connect 30 2 29 0;
#X connect 31 0 32 0;
#X connect 32 0 27 0;
#X connect 32 1 19 0;
#X connect 33 0 24 0;
#X connect 34 0 45 0;
#X connect 35 0 38 0;
#X connect 36 0 35 0;
#X connect 37 0 50 0;
#X connect 38 0 39 0;
#X connect 38 0 42 0;
#X connect 39 0 40 0;
#X connect 40 0 38 1;
#X connect 41 0 43 1;
#X connect 42 0 43 0;
#X connect 42 1 37 0;
#X connect 43 0 34 0;
#X connect 44 0 34 0;
#X connect 45 0 47 0;
#X connect 45 1 47 1;
#X connect 47 2 46 0;
#X connect 47 2 53 0;
#X connect 48 0 49 0;
#X connect 49 0 44 0;
#X connect 49 1 36 0;
#X connect 50 0 41 0;
#X connect 52 0 51 0;
#X connect 52 0 55 0;
#X connect 54 0 53 0;
#X restore 337 38 pd tonal.guess.sequence;
#X obj 106 355 * 0.94;
#N canvas 490 380 450 300 scalecollector 0;
#X obj 34 67 inlet;
#X obj 34 159 outlet;
#X obj 34 128 tabread \$0-Scale;
#X obj 165 57 inlet;
#X obj 164 86 tabwrite \$0-Scale;
#X obj 246 56 inlet;
#N canvas 0 0 450 300 (subpatch) 0;
#X array \$0-Scale 21 float 0;
#X coords 0 100 19 0 20 14 1 0 0;
#X restore 335 148 graph;
#X obj 42 107 + -1;
#X text 162 28 load a scale into an array \,;
#X text 25 46 call scale by value;
#X text 42 179 midi pitch value out;
#X text 310 167 this scale is a colection of frequent notes. 0->most
frequent;
#X connect 0 0 7 0;
#X connect 2 0 1 0;
#X connect 3 0 4 0;
#X connect 5 0 4 1;
#X connect 7 0 2 0;
#X restore 246 497 pd scalecollector;
#X msg 303 303;
#X msg 321 272 add2 \$1;
#X obj 316 176 until;
#X msg 316 152 127;
#X obj 325 200 int 0;
#X obj 364 199 + 1;
#X obj 392 198 % 127;
#X obj 318 243 tabread \$0-weights;
#X obj 293 107 bng 15 250 50 0 empty empty empty 17 7 0 10 -262144
-1 -1;
#X msg 258 233 set;
#X obj 290 126 t b b b;
#X obj 287 403 list split 1;
#X obj 411 403 list;
#X obj 326 453 int 0;
#X obj 365 452 + 1;
#X obj 393 451 % 127;
#X obj 272 436 t f b;
#X obj 289 340 sort 1;
#X connect 0 0 3 0;
#X connect 2 0 16 0;
#X connect 3 0 2 0;
#X connect 3 1 4 1;
#X connect 3 1 8 1;
#X connect 5 0 4 0;
#X connect 6 0 12 0;
#X connect 7 0 6 0;
#X connect 8 1 11 0;
#X connect 9 0 10 0;
#X connect 10 1 26 0;
#X connect 11 0 9 0;
#X connect 11 1 4 1;
#X connect 12 0 13 0;
#X connect 12 0 8 0;
#X connect 13 0 14 0;
#X connect 14 0 12 1;
#X connect 15 0 7 0;
#X connect 16 0 5 0;
#X connect 16 1 15 0;
#X connect 17 0 19 0;
#X connect 18 0 17 0;
#X connect 19 0 20 0;
#X connect 19 0 22 0;
#X connect 20 0 21 0;
#X connect 21 0 19 1;
#X connect 22 0 24 0;
#X connect 23 0 18 0;
#X connect 24 0 4 0;
#X connect 24 1 4 1;
#X connect 26 0 4 0;
#X connect 28 0 45 0;
#X connect 29 0 28 0;
#X connect 30 0 32 0;
#X connect 31 0 30 0;
#X connect 32 0 33 0;
#X connect 32 0 35 0;
#X connect 33 0 34 0;
#X connect 34 0 32 1;
#X connect 35 0 29 0;
#X connect 36 0 38 0;
#X connect 37 0 28 0;
#X connect 38 0 37 0;
#X connect 38 1 28 0;
#X connect 38 2 31 0;
#X connect 39 0 44 0;
#X connect 39 1 40 0;
#X connect 40 0 39 0;
#X connect 41 0 42 0;
#X connect 41 0 27 2;
#X connect 42 0 43 0;
#X connect 43 0 41 1;
#X connect 44 0 27 1;
#X connect 44 1 41 0;
#X connect 45 1 39 0;
#X restore 282 -182 pd tonic.weights;
#X connect 2 0 3 0;
#X connect 2 0 22 0;
#X connect 2 0 15 0;
#X connect 2 0 16 0;
#X connect 2 0 17 0;
#X connect 3 0 2 1;
#X connect 4 0 5 0;
#X connect 5 0 2 0;
#X connect 6 0 2 0;
#X connect 7 0 6 0;
#X connect 10 0 23 0;
#X connect 11 0 10 1;
#X connect 11 1 12 0;
#X connect 12 1 14 0;
#X connect 13 0 9 0;
#X connect 13 0 30 0;
#X connect 14 0 8 0;
#X connect 14 1 13 0;
#X connect 14 2 6 0;
#X connect 15 0 9 1;
#X connect 15 0 28 1;
#X connect 16 0 8 1;
#X connect 17 0 23 1;
#X connect 26 0 11 0;
#X connect 27 0 10 0;
#X connect 27 0 33 0;
#X connect 29 0 30 1;
#X connect 30 0 28 0;
#X coords 0 338 1 337 0 0 0;
#X restore 495 105 pd eventmemory;
#X obj 474 206 chord;
#X obj 224 215 s beatduration;
#X obj 3 512 r beatduration;
#X obj 2 535 delta;
#X obj 14 584 hsl 128 15 0 50 0 0 empty empty tempo_security 2 8 2
20 -4160 -262144 -262144 0 1;
#X obj 6 559 abs;
#X obj 630 64 beat;
#X text 574 232 a system of memory should be integrated \; outermost
note possibilities should extend to precious chords;
#X text 303 265 beat bass;
#X text 479 140 there is an arbitrary level of abstraction \, which
should be replaced with a solfege abstraction;
#X obj 108 12 notein 1;
#X obj 794 464 r beatduration;
#X floatatom 806 483 5 0 0 0 - - -;
#X obj 859 515 random 4;
#X obj 778 583 expr $f1*($f2+1);
#X obj 243 278 s beat;
#X obj 845 487 r beat;
#X msg 827 372 40;
#X msg 841 393 55;
#X msg 859 418 47;
#X msg 864 371 70;
#X msg 870 395 52;
#X msg 898 421 52;
#X msg 906 373 59;
#X msg 918 397 71;
#X msg 937 421 69;
#X msg 946 379;
#X obj 792 425 int;
#X obj 803 323 sel 0 1 2 3 4 5 6 7;
#X obj 831 301 random 8;
#X obj 804 300 bang;
#X obj 370 254 - 12;
#X obj 211 319 bang;
#X obj 238 320 random 13;
#X connect 0 0 14 0;
#X connect 1 1 49 0;
#X connect 1 1 50 0;
#X connect 1 1 56 0;
#X connect 1 1 55 0;
#X connect 1 1 61 0;
#X connect 1 2 44 0;
#X connect 1 2 57 0;
#X connect 1 2 75 0;
#X connect 1 2 92 0;
#X connect 2 0 0 0;
#X connect 3 0 0 0;
#X connect 4 0 0 0;
#X connect 5 0 0 0;
#X connect 6 0 0 0;
#X connect 8 0 0 0;
#X connect 9 0 0 0;
#X connect 10 0 54 0;
#X connect 10 1 54 1;
#X connect 11 0 12 0;
#X connect 12 0 2 0;
#X connect 12 1 5 0;
#X connect 12 2 4 0;
#X connect 12 3 5 0;
#X connect 12 4 6 0;
#X connect 12 5 7 0;
#X connect 12 6 8 0;
#X connect 12 7 9 0;
#X connect 12 8 3 0;
#X connect 12 9 4 0;
#X connect 12 10 7 0;
#X connect 12 11 9 0;
#X connect 13 0 44 1;
#X connect 13 0 91 0;
#X connect 14 0 16 0;
#X connect 14 1 17 0;
#X connect 14 2 18 0;
#X connect 14 3 19 0;
#X connect 14 4 20 0;
#X connect 14 5 22 0;
#X connect 14 6 23 0;
#X connect 14 7 24 0;
#X connect 15 0 26 0;
#X connect 15 0 31 0;
#X connect 15 1 27 0;
#X connect 15 2 28 0;
#X connect 15 2 32 0;
#X connect 15 3 29 0;
#X connect 15 3 33 0;
#X connect 15 4 30 0;
#X connect 16 0 37 0;
#X connect 17 0 37 0;
#X connect 18 0 37 0;
#X connect 19 0 37 0;
#X connect 20 0 37 0;
#X connect 21 0 37 0;
#X connect 22 0 37 0;
#X connect 23 0 37 0;
#X connect 24 0 37 0;
#X connect 26 0 16 0;
#X connect 26 0 77 0;
#X connect 27 0 17 0;
#X connect 27 0 78 0;
#X connect 28 0 18 0;
#X connect 28 0 79 0;
#X connect 29 0 19 0;
#X connect 30 0 20 0;
#X connect 30 0 80 0;
#X connect 31 0 34 0;
#X connect 32 0 35 0;
#X connect 33 0 36 0;
#X connect 34 0 22 0;
#X connect 34 0 81 0;
#X connect 34 0 82 0;
#X connect 35 0 23 0;
#X connect 35 0 83 0;
#X connect 36 0 24 0;
#X connect 36 0 84 0;
#X connect 37 0 38 0;
#X connect 37 0 91 0;
#X connect 38 0 40 0;
#X connect 38 0 90 0;
#X connect 39 0 52 0;
#X connect 39 1 52 1;
#X connect 40 0 39 0;
#X connect 41 0 47 0;
#X connect 42 0 53 0;
#X connect 42 0 1 0;
#X connect 42 1 53 1;
#X connect 42 1 1 1;
#X connect 44 0 10 0;
#X connect 45 0 44 0;
#X connect 46 1 39 1;
#X connect 46 1 42 1;
#X connect 46 1 10 1;
#X connect 47 0 42 0;
#X connect 48 0 1 0;
#X connect 50 0 10 2;
#X connect 51 0 59 0;
#X connect 51 0 60 0;
#X connect 51 0 1 0;
#X connect 51 1 46 0;
#X connect 51 1 59 1;
#X connect 51 1 60 1;
#X connect 51 1 1 1;
#X connect 55 0 41 1;
#X connect 56 0 38 1;
#X connect 57 0 56 1;
#X connect 57 1 55 1;
#X connect 60 0 13 0;
#X connect 60 2 43 0;
#X connect 60 4 15 0;
#X connect 62 0 63 0;
#X connect 63 0 65 0;
#X connect 65 0 64 0;
#X connect 70 0 1 0;
#X connect 70 0 11 0;
#X connect 70 1 1 1;
#X connect 70 1 11 1;
#X connect 71 0 72 0;
#X connect 72 0 74 0;
#X connect 73 0 74 1;
#X connect 74 0 42 2;
#X connect 76 0 73 0;
#X connect 77 0 87 0;
#X connect 78 0 87 0;
#X connect 79 0 87 0;
#X connect 80 0 87 0;
#X connect 81 0 87 0;
#X connect 82 0 87 0;
#X connect 83 0 87 0;
#X connect 84 0 87 0;
#X connect 85 0 87 0;
#X connect 87 0 41 0;
#X connect 88 0 77 0;
#X connect 88 1 78 0;
#X connect 88 2 79 0;
#X connect 88 3 80 0;
#X connect 88 4 81 0;
#X connect 88 5 83 0;
#X connect 88 6 84 0;
#X connect 88 7 85 0;
#X connect 89 0 88 0;
#X connect 90 0 89 0;
#X connect 91 0 44 1;
#X connect 92 0 93 0;
#X connect 93 0 14 0;
